<?xml version="1.0" encoding="UTF-8" standalone="no"?>
<svg
   xmlns:dc="http://purl.org/dc/elements/1.1/"
   xmlns:cc="http://creativecommons.org/ns#"
   xmlns:rdf="http://www.w3.org/1999/02/22-rdf-syntax-ns#"
   xmlns:svg="http://www.w3.org/2000/svg"
   xmlns="http://www.w3.org/2000/svg"
   xmlns:sodipodi="http://sodipodi.sourceforge.net/DTD/sodipodi-0.dtd"
   xmlns:inkscape="http://www.inkscape.org/namespaces/inkscape"
   sodipodi:docname="hello-kittyb.svg"
   inkscape:version="0.91 r13725"
   version="1.1"
   id="svg3491"
   width="3200"
   height="800">
  <sodipodi:namedview
     inkscape:showpageshadow="false"
     inkscape:current-layer="layer1"
     inkscape:window-maximized="0"
     inkscape:window-y="48"
     inkscape:window-x="1366"
     inkscape:cy="273.32718"
     inkscape:cx="1151.2425"
     inkscape:zoom="0.51176854"
     showgrid="false"
     id="namedview3495"
     inkscape:window-height="1176"
     inkscape:window-width="2005"
     inkscape:pageshadow="2"
     inkscape:pageopacity="0"
     guidetolerance="10"
     gridtolerance="10"
     objecttolerance="10"
     borderopacity="1"
     bordercolor="#666666"
     pagecolor="#ffffff" />
  <title
     id="title16776">Egg warning label</title>
  <metadata
     id="metadata3499">
    <rdf:RDF>
      <cc:Work
         rdf:about="">
        <dc:format>image/svg+xml</dc:format>
        <dc:type
           rdf:resource="http://purl.org/dc/dcmitype/StillImage" />
        <dc:title>Egg warning label</dc:title>
        <cc:license
           rdf:resource="http://creativecommons.org/publicdomain/zero/1.0/" />
        <dc:creator>
          <cc:Agent>
            <dc:title>Dan Newman</dc:title>
          </cc:Agent>
        </dc:creator>
        <dc:description>This drawing is intended for drawing on an egg with an Eggbot.  See http://www.egg-bot.com/ for information.</dc:description>
      </cc:Work>
      <cc:License
         rdf:about="http://creativecommons.org/publicdomain/zero/1.0/">
        <cc:permits
           rdf:resource="http://creativecommons.org/ns#Reproduction" />
        <cc:permits
           rdf:resource="http://creativecommons.org/ns#Distribution" />
        <cc:permits
           rdf:resource="http://creativecommons.org/ns#DerivativeWorks" />
      </cc:License>
    </rdf:RDF>
  </metadata>
  <defs
     id="defs3497" />
  <g
     inkscape:groupmode="layer"
     id="layer1"
     inkscape:label="2">
    <path
       style="fill:none;fill-rule:evenodd;stroke:#000000;stroke-width:5;stroke-linecap:butt;stroke-linejoin:miter;stroke-miterlimit:4;stroke-dasharray:none;stroke-opacity:1"
       d="m 977.8998,90.31434 c 0,0 -99.6269,-11.19861 -45.7409,-54.031084 50.7902,-40.371653 75.9931,30.397234 75.9931,30.397234 0,0 8.4826,-59.62951 56.6494,-38.687389 63.5578,27.633849 -13.817,53.886009 -13.817,53.886009 0,0 91.8101,-2.76338 55.886,35.92401 -35.924,38.68739 -61.4127,6.90846 -61.4127,6.90846 0,0 38.6874,47.59585 -16.5803,47.59585 -55.2677,0 -35.9241,-53.12262 -35.9241,-53.12262 0,0 -18.7202,67.98868 -67.7029,30.39724 -59.4127,-45.59586 52.6494,-59.26771 52.6494,-59.26771 z"
       id="path4206"
       inkscape:connector-curvature="0"
       sodipodi:nodetypes="cscscscscsc" />
    <ellipse
       style="fill:none;fill-opacity:1;stroke:#4b43a9;stroke-width:5;stroke-miterlimit:4;stroke-dasharray:none;stroke-opacity:1"
       id="path4748"
       cx="1015.0604"
       cy="93.550957"
       rx="26.252159"
       ry="17.962004" />
    <path
       style="fill:none;fill-rule:evenodd;stroke:#000000;stroke-width:5;stroke-linecap:butt;stroke-linejoin:miter;stroke-miterlimit:4;stroke-dasharray:none;stroke-opacity:1"
       d="m 1024.7323,171.68913 c 0,0 14.0841,36.58655 -24.8705,66.32124 C 804.4347,387.18305 771.5089,452.81722 767.6393,517.21293 754.6317,733.67194 974.788,765.01495 1019.0021,771.92341"
       id="path4750"
       inkscape:connector-curvature="0"
       sodipodi:nodetypes="cssc" />
    <path
       style="fill:none;fill-rule:evenodd;stroke:#000000;stroke-width:5;stroke-linecap:butt;stroke-linejoin:miter;stroke-miterlimit:4;stroke-dasharray:none;stroke-opacity:1"
       d="m 1009.5337,121.94819 -4.1451,17.96201"
       id="path4752"
       inkscape:connector-curvature="0" />
    <path
       style="fill:none;fill-rule:evenodd;stroke:#000000;stroke-width:5;stroke-linecap:butt;stroke-linejoin:miter;stroke-miterlimit:4;stroke-dasharray:none;stroke-opacity:1"
       d="m 1020.5872,149.58205 -1.3817,-29.01555"
       id="path4754"
       inkscape:connector-curvature="0" />
    <path
       style="fill:none;fill-rule:evenodd;stroke:#000000;stroke-width:5;stroke-linecap:butt;stroke-linejoin:miter;stroke-miterlimit:4;stroke-dasharray:none;stroke-opacity:1"
       d="M 1037.1675,141.29189 1030.259,120.5665"
       id="path4756"
       inkscape:connector-curvature="0" />
    <path
       style="fill:none;fill-rule:evenodd;stroke:#000000;stroke-width:5;stroke-linecap:butt;stroke-linejoin:miter;stroke-miterlimit:4;stroke-dasharray:none;stroke-opacity:1"
       d="m 1049.6027,106.74958 11.0536,6.90846"
       id="path4758"
       inkscape:connector-curvature="0" />
    <path
       style="fill:none;fill-rule:evenodd;stroke:#000000;stroke-width:5;stroke-linecap:butt;stroke-linejoin:miter;stroke-miterlimit:4;stroke-dasharray:none;stroke-opacity:1"
       d="m 1075.8549,106.74958 -23.4888,-6.90847"
       id="path4760"
       inkscape:connector-curvature="0" />
    <path
       style="fill:none;fill-rule:evenodd;stroke:#000000;stroke-width:5;stroke-linecap:butt;stroke-linejoin:miter;stroke-miterlimit:4;stroke-dasharray:none;stroke-opacity:1"
       d="m 1053.7478,88.78757 12.4353,2.76339"
       id="path4762"
       inkscape:connector-curvature="0" />
    <path
       style="fill:none;fill-rule:evenodd;stroke:#000000;stroke-width:5;stroke-linecap:butt;stroke-linejoin:miter;stroke-miterlimit:4;stroke-dasharray:none;stroke-opacity:1"
       d="m 1033.0224,70.82557 13.817,-17.962"
       id="path4764"
       inkscape:connector-curvature="0" />
    <path
       style="fill:none;fill-rule:evenodd;stroke:#000000;stroke-width:5;stroke-linecap:butt;stroke-linejoin:miter;stroke-miterlimit:4;stroke-dasharray:none;stroke-opacity:1"
       d="m 1023.3506,63.91711 4.1451,-12.435236"
       id="path4766"
       inkscape:connector-curvature="0" />
    <path
       style="fill:none;fill-rule:evenodd;stroke:#000000;stroke-width:5;stroke-linecap:butt;stroke-linejoin:miter;stroke-miterlimit:4;stroke-dasharray:none;stroke-opacity:1"
       d="m 1045.4577,74.97065 6.9084,-9.67185"
       id="path4768"
       inkscape:connector-curvature="0" />
    <path
       style="fill:none;fill-rule:evenodd;stroke:#000000;stroke-width:5;stroke-linecap:butt;stroke-linejoin:miter;stroke-miterlimit:4;stroke-dasharray:none;stroke-opacity:1"
       d="M 992.9533,70.82557 987.4266,58.39034"
       id="path4770"
       inkscape:connector-curvature="0" />
    <path
       style="fill:none;fill-rule:evenodd;stroke:#000000;stroke-width:5;stroke-linecap:butt;stroke-linejoin:miter;stroke-miterlimit:4;stroke-dasharray:none;stroke-opacity:1"
       d="m 966.7012,54.24526 16.5803,15.19862"
       id="path4772"
       inkscape:connector-curvature="0" />
    <path
       style="fill:none;fill-rule:evenodd;stroke:#000000;stroke-width:5;stroke-linecap:butt;stroke-linejoin:miter;stroke-miterlimit:4;stroke-dasharray:none;stroke-opacity:1"
       d="m 957.0293,65.2988 17.962,5.52677"
       id="path4774"
       inkscape:connector-curvature="0" />
    <path
       style="fill:none;fill-rule:evenodd;stroke:#000000;stroke-width:5;stroke-linecap:butt;stroke-linejoin:miter;stroke-miterlimit:4;stroke-dasharray:none;stroke-opacity:1"
       d="m 962.5561,102.6045 -16.5803,8.29015"
       id="path4776"
       inkscape:connector-curvature="0" />
    <path
       style="fill:none;fill-rule:evenodd;stroke:#000000;stroke-width:5;stroke-linecap:butt;stroke-linejoin:miter;stroke-miterlimit:4;stroke-dasharray:none;stroke-opacity:1"
       d="M 952.8843,123.32989 976.373,109.51296"
       id="path4778"
       inkscape:connector-curvature="0" />
    <path
       style="fill:none;fill-rule:evenodd;stroke:#000000;stroke-width:5;stroke-linecap:butt;stroke-linejoin:miter;stroke-miterlimit:4;stroke-dasharray:none;stroke-opacity:1"
       d="m 983.2815,115.03973 -12.4352,11.05354"
       id="path4780"
       inkscape:connector-curvature="0" />
    <path
       style="fill:none;fill-rule:evenodd;stroke:#000000;stroke-width:5;stroke-linecap:butt;stroke-linejoin:miter;stroke-miterlimit:4;stroke-dasharray:none;stroke-opacity:1"
       d="m 811.6567,286.992 c 0,0 0.977,-25.4481 4.885,-34.24113 3.908,-8.79304 33.4747,-49.15638 4.885,-65.45928 -38.003,-21.6707 -47.3263,17.37722 -56.6662,23.4481 -9.7701,6.35052 -27.3561,13.67806 -27.3561,13.67806 6.1877,9.77004 5.5364,17.58608 24.4251,11.72405 0,0 -13.6941,10.40799 -3.908,18.56307 11.724,9.77004 19.54,-2.93101 19.54,-2.93101 0,0 -5.096,16.03994 2.9311,20.56308 9.9263,5.59334 19.586,-6 19.586,-6 0,0 -2,20.65506 11.6781,20.65506 z"
       id="path4798"
       inkscape:connector-curvature="0"
       sodipodi:nodetypes="csssccscscc" />
    <path
       style="fill:none;fill-rule:evenodd;stroke:#000000;stroke-width:5;stroke-linecap:butt;stroke-linejoin:miter;stroke-miterlimit:4;stroke-dasharray:none;stroke-opacity:1"
       d="m 793.0936,200.48114 c -10.0957,6.6762 -17.2604,13.35239 -22.9596,22.9596"
       id="path4800"
       inkscape:connector-curvature="0"
       sodipodi:nodetypes="cc" />
    <path
       style="fill:none;fill-rule:evenodd;stroke:#000000;stroke-width:5;stroke-linecap:butt;stroke-linejoin:miter;stroke-miterlimit:4;stroke-dasharray:none;stroke-opacity:1"
       d="m 799.4441,211.71669 c -8.9558,7.81603 -14.4922,15.63206 -16.609,26.37911"
       id="path4802"
       inkscape:connector-curvature="0"
       sodipodi:nodetypes="cc" />
    <path
       style="fill:none;fill-rule:evenodd;stroke:#000000;stroke-width:5;stroke-linecap:butt;stroke-linejoin:miter;stroke-miterlimit:4;stroke-dasharray:none;stroke-opacity:1"
       d="m 807.7487,220.02123 c -5.6412,6.70775 -13.7553,18.50553 -9.7701,29.31012"
       id="path4804"
       inkscape:connector-curvature="0"
       sodipodi:nodetypes="cc" />
    <path
       style="fill:none;fill-rule:evenodd;stroke:#000000;stroke-width:5;stroke-linecap:butt;stroke-linejoin:miter;stroke-miterlimit:4;stroke-dasharray:none;stroke-opacity:1"
       d="m 821.4267,225.39475 c -7.0019,4.72218 -10.5842,12.37538 -9.2815,20.02858"
       id="path4806"
       inkscape:connector-curvature="0"
       sodipodi:nodetypes="cc" />
    <path
       style="fill:none;fill-rule:evenodd;stroke:#000000;stroke-width:5;stroke-linecap:butt;stroke-linejoin:miter;stroke-miterlimit:4;stroke-dasharray:none;stroke-opacity:1"
       d="m 804.3292,194.13062 c 0,0 35.4479,-21.60647 53.7352,2.44251 35.6607,46.8962 -38.7373,138.52137 -79.6258,196.37784 -38.8076,54.91201 -14.1666,184.65378 -5.862,195.88933"
       id="path4808"
       inkscape:connector-curvature="0"
       sodipodi:nodetypes="cssc" />
    <path
       style="fill:none;fill-rule:evenodd;stroke:#000000;stroke-width:5;stroke-linecap:butt;stroke-linejoin:miter;stroke-miterlimit:4;stroke-dasharray:none;stroke-opacity:1"
       d="m 1006.0805,500.42142 c 0,0 -13.1895,-40.01117 5.862,-44.40769 19.0516,-4.39652 26.8677,7.81603 32.7297,8.79303 5.862,0.97701 29.9505,-10.32714 41.0342,-3.954 19.54,11.23554 -4.8851,43.47668 -4.8851,43.47668 0,0 40.5457,-20.51709 47.3847,2.44251 6.8391,22.9596 -16.609,34.68365 -16.609,34.68365 0,0 25.376,18.2712 17.0975,32.24114 -15.632,26.37911 -49.3387,0.977 -49.3387,0.977 0,0 32.3913,32.47361 6.3506,43.47669 -34.6837,14.65507 -49.2928,-13.67806 -49.2928,-13.67806 0,0 -11.6813,23.20947 -32.7756,21.00559 -32.7297,-3.41951 -6.839,-53.24673 -6.839,-53.24673 0,0 -56.1318,25.40211 -54.6663,-18.07458 0.9985,-29.62121 30.3332,-25.35611 30.3332,-25.35611 0,0 -28.9136,-29.84462 -10.3506,-40.10317 18.5631,-10.25854 43.9652,11.72405 43.9652,11.72405 z"
       id="path4810"
       inkscape:connector-curvature="0"
       sodipodi:nodetypes="cssscscscscscscsc" />
    <path
       style="fill:none;fill-rule:evenodd;stroke:#000000;stroke-width:5;stroke-linecap:butt;stroke-linejoin:miter;stroke-miterlimit:4;stroke-dasharray:none;stroke-opacity:1"
       d="m 1022.6896,770.56308 c 0,0 -0.3965,-55.68924 3.5115,-66.92479 3.908,-11.23554 10.1206,-30.28713 11.0976,-49.33871 0.6087,-11.87017 -2.3966,-52.26972 -2.3966,-52.26972"
       id="path4812"
       inkscape:connector-curvature="0"
       sodipodi:nodetypes="cssc" />
    <path
       style="fill:none;fill-rule:evenodd;stroke:#000000;stroke-width:5;stroke-linecap:butt;stroke-linejoin:miter;stroke-miterlimit:4;stroke-dasharray:none;stroke-opacity:1"
       d="m 1019.3161,773.31013 c 0,0 -75.6229,-10.79858 -103.166,-76.02236 -12.5036,-29.60923 -9.3275,-54.75823 -9.3275,-67.45928 0,-12.70106 -10.655,-35.61466 -10.655,-35.61466 0,0 51.7812,0.4885 80.6028,40.54567 30.8778,42.91487 53.7812,97.51645 42.5457,138.55063 z"
       id="path4814"
       inkscape:connector-curvature="0"
       sodipodi:nodetypes="csscsc" />
    <path
       style="fill:none;fill-rule:evenodd;stroke:#000000;stroke-width:5;stroke-linecap:butt;stroke-linejoin:miter;stroke-miterlimit:4;stroke-dasharray:none;stroke-opacity:1"
       d="m 1021.7126,774.9596 c 0,0 23.9366,-47.78122 43.9652,-60.48228 14.6322,-9.27894 55.9553,-38.05357 64.4823,-51.8732 14.1665,-22.9596 13.1895,-65.45928 13.1895,-65.45928 0,0 -13.1895,26.4251 -24.9136,32.77563 -11.724,6.35053 -50.149,27.21962 -61.5513,38.05717 -19.2613,18.30734 -38.5917,92.81544 -35.1721,106.98196 z"
       id="path4816"
       inkscape:connector-curvature="0"
       sodipodi:nodetypes="csscssc" />
    <path
       style="fill:none;fill-rule:evenodd;stroke:#000000;stroke-width:5;stroke-linecap:butt;stroke-linejoin:miter;stroke-miterlimit:4;stroke-dasharray:none;stroke-opacity:1"
       d="m 1020.7356,776.4251 c 0,0 78.7423,-10.47715 96.2349,-23.00559 36.1492,-25.8906 34.1951,-78.11434 34.1951,-78.11434 0,0 -12.701,20.07458 -27.3561,23.49409 -14.655,3.41952 -63.0167,6.79304 -103.0739,77.62584 z"
       id="path4818"
       inkscape:connector-curvature="0"
       sodipodi:nodetypes="cscsc" />
    <ellipse
       style="fill:none;fill-opacity:1;stroke:#4b43a9;stroke-width:5;stroke-miterlimit:4;stroke-dasharray:none;stroke-opacity:1"
       id="path4820"
       cx="1077.8313"
       cy="108.7824"
       rx="19.051582"
       ry="11.235548"
       transform="matrix(0.97337616,0.22921357,-0.22921357,0.97337616,0,0)" />
    <path
       style="fill:none;fill-rule:evenodd;stroke:#000000;stroke-width:4;stroke-linecap:butt;stroke-linejoin:miter;stroke-miterlimit:4;stroke-dasharray:none;stroke-opacity:1"
       d="m 949.4143,318.83662 c 0,0 -4.5728,-24.02871 14.1665,-22.60907 32.2412,2.44251 57.1548,43.96519 57.1548,43.96519"
       id="path4822"
       inkscape:connector-curvature="0"
       sodipodi:nodetypes="csc" />
    <path
       style="fill:none;fill-rule:evenodd;stroke:#000000;stroke-width:4;stroke-linecap:butt;stroke-linejoin:miter;stroke-miterlimit:4;stroke-dasharray:none;stroke-opacity:1"
       d="m 988.891,308.04359 c 0,0 16.2125,-20.12057 26.9596,-7.41952 10.747,12.70105 10.747,40.54567 10.747,40.54567"
       id="path4824"
       inkscape:connector-curvature="0"
       sodipodi:nodetypes="csc" />
    <path
       style="fill:none;fill-rule:evenodd;stroke:#000000;stroke-width:4;stroke-linecap:butt;stroke-linejoin:miter;stroke-miterlimit:4;stroke-dasharray:none;stroke-opacity:1"
       d="m 1023.0401,320.92861 c 0,0 7.9541,-23.72405 20.1666,-7.60349 7.6923,10.15382 -8.3046,29.79863 -8.3046,29.79863 0,0 16.9128,-19.01874 26.3332,-14.70105 11.724,5.37352 10.3045,17.63206 10.3045,17.63206 0,0 -14.1666,-2.44251 -24.4251,3.41952"
       id="path4826"
       inkscape:connector-curvature="0"
       sodipodi:nodetypes="cscscc" />
    <path
       style="fill:none;fill-rule:evenodd;stroke:#000000;stroke-width:4;stroke-linecap:butt;stroke-linejoin:miter;stroke-miterlimit:4;stroke-dasharray:none;stroke-opacity:1"
       d="m 1086.1949,373.54886 c 0,0 3.908,-13.32753 -0.977,-19.67806 -4.8851,-6.35053 -14.6551,-8.30454 -14.6551,-8.30454"
       id="path4828"
       inkscape:connector-curvature="0"
       sodipodi:nodetypes="csc" />
    <path
       style="fill:none;fill-rule:evenodd;stroke:#000000;stroke-width:4;stroke-linecap:butt;stroke-linejoin:miter;stroke-miterlimit:4;stroke-dasharray:none;stroke-opacity:1"
       d="m 1047.1147,357.77881 c 0,0 62.0296,16.47236 53.7352,38.10317 -9.2818,24.20578 -52.7582,-27.35612 -52.7582,-27.35612 0,0 46.0476,45.07079 18.0746,56.17774 -33.2181,13.18956 -37.6147,-50.31571 -37.6147,-50.31571 0,0 20.5171,60.08575 -18.5631,54.71223 -39.0801,-5.37352 -3.4195,-56.66624 -3.4195,-56.66624 0,0 -22.4711,45.43069 -53.7352,34.68365 -31.2641,-10.74705 42.4997,-53.73523 42.4997,-53.73523 0,0 -72.8608,39.28729 -74.2523,15.63206 -1.9541,-33.21814 77.1833,-27.84462 77.1833,-27.84462"
       id="path4830"
       inkscape:connector-curvature="0"
       sodipodi:nodetypes="cscscscscsc" />
    <path
       style="fill:none;fill-rule:evenodd;stroke:#000000;stroke-width:4;stroke-linecap:butt;stroke-linejoin:miter;stroke-miterlimit:4;stroke-dasharray:none;stroke-opacity:1"
       d="m 942.7132,346.10076 c 0,0 -33.677,-22.12678 11.0976,-26.91361 42.0546,-4.49604 55.2007,20.02859 55.2007,20.02859"
       id="path4832"
       inkscape:connector-curvature="0"
       sodipodi:nodetypes="csc" />
    <path
       style="fill:none;fill-rule:evenodd;stroke:#000000;stroke-width:5;stroke-linecap:butt;stroke-linejoin:miter;stroke-miterlimit:4;stroke-dasharray:none;stroke-opacity:1"
       d="m 959.7927,407.95855 c 0,0 -111.2262,92.5734 -110.5354,147.84111 0.6909,55.2677 18.6529,196.20034 171.3299,218.30742"
       id="path4836"
       inkscape:connector-curvature="0" />
    <ellipse
       style="fill:none;fill-opacity:1;stroke:#4b43a9;stroke-width:5;stroke-miterlimit:4;stroke-dasharray:none;stroke-opacity:1"
       id="path4838"
       cx="970.73151"
       cy="655.26422"
       rx="21.416235"
       ry="12.089809"
       transform="matrix(0.9933202,-0.11539059,0.11539059,0.9933202,0,0)" />
    <path
       style="fill:none;fill-rule:evenodd;stroke:#000000;stroke-width:4;stroke-linecap:butt;stroke-linejoin:miter;stroke-miterlimit:4;stroke-dasharray:none;stroke-opacity:1"
       d="m 1011.6062,597.25043 c 11.0535,-5.18135 20.7254,-15.19861 25.9067,-25.90673 4.7208,15.19862 14.6229,25.90674 26.5976,36.26943 7.2539,-13.24122 6.2176,-28.20956 -2.0725,-41.7962 14.0472,-0.11514 29.1307,1.49683 42.1416,-3.45423 -4.9511,-11.28383 -15.7743,-19.45884 -27.2884,-26.59759 10.3627,-1.9574 20.7253,-7.0236 27.9792,-15.19861 -12.6655,-5.06621 -26.7127,-9.44157 -39.0328,-1.72712 4.2616,-12.40949 8.1549,-25.78103 2.7634,-39.72366 -9.6718,5.06621 -19.6891,13.24122 -23.8342,27.63385 -6.1025,-10.01727 -5.6419,-27.28843 -18.3074,-30.05181 -8.175,6.79332 -8.4053,22.56764 -6.9085,39.03281 -10.2476,-4.02994 -20.8405,-9.09614 -32.8152,-6.90846 -2.4073,12.00122 8.9304,18.6968 17.2712,24.87047 -12.0898,5.41163 -22.7979,12.55037 -30.0518,23.48877 12.4352,4.60564 24.525,5.75705 36.2694,4.4905 -1.9574,12.20495 -5.6419,23.02821 1.3817,35.57858 z"
       id="path4840"
       inkscape:connector-curvature="0"
       sodipodi:nodetypes="ccccccccccccccccc" />
    <path
       style="fill:none;fill-rule:evenodd;stroke:#000000;stroke-width:5;stroke-linecap:butt;stroke-linejoin:miter;stroke-miterlimit:4;stroke-dasharray:none;stroke-opacity:1"
       d="m 2179.6893,84.216159 c 0,0 99.6269,-11.19861 45.7409,-54.03108 -50.7902,-40.37165 -75.9931,30.39723 -75.9931,30.39723 0,0 -8.4826,-59.62951015 -56.6494,-38.68738 -63.5578,27.63384 13.817,53.886 13.817,53.886 0,0 -91.8101,-2.76338 -55.886,35.924011 35.924,38.6874 61.4127,6.90847 61.4127,6.90847 0,0 -38.6874,47.59585 16.5803,47.59585 55.2677,0 35.9241,-53.12263 35.9241,-53.12263 0,0 18.7202,67.98869 67.7029,30.39725 59.4127,-45.595871 -52.6494,-59.267721 -52.6494,-59.267721 z"
       id="path4206-5"
       inkscape:connector-curvature="0"
       sodipodi:nodetypes="cscscscscsc" />
    <ellipse
       style="fill:none;fill-opacity:1;stroke:#4b43a9;stroke-width:5;stroke-miterlimit:4;stroke-dasharray:none;stroke-opacity:1"
       id="path4748-2"
       cx="-2142.5286"
       cy="87.452774"
       rx="26.252159"
       ry="17.962004"
       transform="scale(-1,1)" />
    <path
       style="fill:none;fill-rule:evenodd;stroke:#000000;stroke-width:5;stroke-linecap:butt;stroke-linejoin:miter;stroke-miterlimit:4;stroke-dasharray:none;stroke-opacity:1"
       d="m 2132.8568,165.59096 c 0,0 -14.0841,36.58655 24.8705,66.32124 195.4271,149.17268 228.3529,214.80685 232.2225,279.20258 13.0076,216.459 -207.1487,247.802 -251.3628,254.7105"
       id="path4750-8"
       inkscape:connector-curvature="0"
       sodipodi:nodetypes="cssc" />
    <path
       style="fill:none;fill-rule:evenodd;stroke:#000000;stroke-width:5;stroke-linecap:butt;stroke-linejoin:miter;stroke-miterlimit:4;stroke-dasharray:none;stroke-opacity:1"
       d="m 2148.0554,115.85002 4.1451,17.96201"
       id="path4752-5"
       inkscape:connector-curvature="0" />
    <path
       style="fill:none;fill-rule:evenodd;stroke:#000000;stroke-width:5;stroke-linecap:butt;stroke-linejoin:miter;stroke-miterlimit:4;stroke-dasharray:none;stroke-opacity:1"
       d="m 2137.0019,143.48388 1.3817,-29.01556"
       id="path4754-8"
       inkscape:connector-curvature="0" />
    <path
       style="fill:none;fill-rule:evenodd;stroke:#000000;stroke-width:5;stroke-linecap:butt;stroke-linejoin:miter;stroke-miterlimit:4;stroke-dasharray:none;stroke-opacity:1"
       d="m 2120.4216,135.19372 6.9085,-20.7254"
       id="path4756-9"
       inkscape:connector-curvature="0" />
    <path
       style="fill:none;fill-rule:evenodd;stroke:#000000;stroke-width:5;stroke-linecap:butt;stroke-linejoin:miter;stroke-miterlimit:4;stroke-dasharray:none;stroke-opacity:1"
       d="m 2107.9864,100.6514 -11.0536,6.90846"
       id="path4758-0"
       inkscape:connector-curvature="0" />
    <path
       style="fill:none;fill-rule:evenodd;stroke:#000000;stroke-width:5;stroke-linecap:butt;stroke-linejoin:miter;stroke-miterlimit:4;stroke-dasharray:none;stroke-opacity:1"
       d="m 2081.7342,100.6514 23.4888,-6.908471"
       id="path4760-7"
       inkscape:connector-curvature="0" />
    <path
       style="fill:none;fill-rule:evenodd;stroke:#000000;stroke-width:5;stroke-linecap:butt;stroke-linejoin:miter;stroke-miterlimit:4;stroke-dasharray:none;stroke-opacity:1"
       d="m 2103.8413,82.689389 -12.4353,2.76339"
       id="path4762-7"
       inkscape:connector-curvature="0" />
    <path
       style="fill:none;fill-rule:evenodd;stroke:#000000;stroke-width:5;stroke-linecap:butt;stroke-linejoin:miter;stroke-miterlimit:4;stroke-dasharray:none;stroke-opacity:1"
       d="m 2124.5667,64.727389 -13.817,-17.962"
       id="path4764-6"
       inkscape:connector-curvature="0" />
    <path
       style="fill:none;fill-rule:evenodd;stroke:#000000;stroke-width:5;stroke-linecap:butt;stroke-linejoin:miter;stroke-miterlimit:4;stroke-dasharray:none;stroke-opacity:1"
       d="m 2134.2385,57.818929 -4.1451,-12.43523"
       id="path4766-6"
       inkscape:connector-curvature="0" />
    <path
       style="fill:none;fill-rule:evenodd;stroke:#000000;stroke-width:5;stroke-linecap:butt;stroke-linejoin:miter;stroke-miterlimit:4;stroke-dasharray:none;stroke-opacity:1"
       d="m 2112.1314,68.872469 -6.9084,-9.67185"
       id="path4768-7"
       inkscape:connector-curvature="0" />
    <path
       style="fill:none;fill-rule:evenodd;stroke:#000000;stroke-width:5;stroke-linecap:butt;stroke-linejoin:miter;stroke-miterlimit:4;stroke-dasharray:none;stroke-opacity:1"
       d="m 2164.6358,64.727389 5.5267,-12.43523"
       id="path4770-0"
       inkscape:connector-curvature="0" />
    <path
       style="fill:none;fill-rule:evenodd;stroke:#000000;stroke-width:5;stroke-linecap:butt;stroke-linejoin:miter;stroke-miterlimit:4;stroke-dasharray:none;stroke-opacity:1"
       d="m 2190.8879,48.147079 -16.5803,15.19862"
       id="path4772-6"
       inkscape:connector-curvature="0" />
    <path
       style="fill:none;fill-rule:evenodd;stroke:#000000;stroke-width:5;stroke-linecap:butt;stroke-linejoin:miter;stroke-miterlimit:4;stroke-dasharray:none;stroke-opacity:1"
       d="m 2200.5598,59.200619 -17.962,5.52677"
       id="path4774-3"
       inkscape:connector-curvature="0" />
    <path
       style="fill:none;fill-rule:evenodd;stroke:#000000;stroke-width:5;stroke-linecap:butt;stroke-linejoin:miter;stroke-miterlimit:4;stroke-dasharray:none;stroke-opacity:1"
       d="m 2195.033,96.506319 16.5803,8.290151"
       id="path4776-8"
       inkscape:connector-curvature="0" />
    <path
       style="fill:none;fill-rule:evenodd;stroke:#000000;stroke-width:5;stroke-linecap:butt;stroke-linejoin:miter;stroke-miterlimit:4;stroke-dasharray:none;stroke-opacity:1"
       d="m 2204.7048,117.23172 -23.4887,-13.81694"
       id="path4778-3"
       inkscape:connector-curvature="0" />
    <path
       style="fill:none;fill-rule:evenodd;stroke:#000000;stroke-width:5;stroke-linecap:butt;stroke-linejoin:miter;stroke-miterlimit:4;stroke-dasharray:none;stroke-opacity:1"
       d="m 2174.3076,108.94155 12.4352,11.05355"
       id="path4780-8"
       inkscape:connector-curvature="0" />
    <path
       style="fill:none;fill-rule:evenodd;stroke:#000000;stroke-width:5;stroke-linecap:butt;stroke-linejoin:miter;stroke-miterlimit:4;stroke-dasharray:none;stroke-opacity:1"
       d="m 2345.9324,280.89383 c 0,0 -0.977,-25.4481 -4.885,-34.24113 -3.908,-8.79304 -33.4747,-49.15638 -4.885,-65.45928 38.003,-21.6707 47.3263,17.37722 56.6662,23.4481 9.7701,6.35052 27.3561,13.67806 27.3561,13.67806 -6.1877,9.77004 -5.5364,17.58608 -24.4251,11.72405 0,0 13.6941,10.40799 3.908,18.56307 -11.724,9.77004 -19.54,-2.93101 -19.54,-2.93101 0,0 5.096,16.03994 -2.9311,20.56308 -9.9263,5.59334 -19.586,-6 -19.586,-6 0,0 2,20.65506 -11.6781,20.65506 z"
       id="path4798-1"
       inkscape:connector-curvature="0"
       sodipodi:nodetypes="csssccscscc" />
    <path
       style="fill:none;fill-rule:evenodd;stroke:#000000;stroke-width:5;stroke-linecap:butt;stroke-linejoin:miter;stroke-miterlimit:4;stroke-dasharray:none;stroke-opacity:1"
       d="m 2364.4955,194.38297 c 10.0957,6.6762 17.2604,13.35239 22.9596,22.9596"
       id="path4800-2"
       inkscape:connector-curvature="0"
       sodipodi:nodetypes="cc" />
    <path
       style="fill:none;fill-rule:evenodd;stroke:#000000;stroke-width:5;stroke-linecap:butt;stroke-linejoin:miter;stroke-miterlimit:4;stroke-dasharray:none;stroke-opacity:1"
       d="m 2358.145,205.61852 c 8.9558,7.81603 14.4922,15.63206 16.609,26.37911"
       id="path4802-8"
       inkscape:connector-curvature="0"
       sodipodi:nodetypes="cc" />
    <path
       style="fill:none;fill-rule:evenodd;stroke:#000000;stroke-width:5;stroke-linecap:butt;stroke-linejoin:miter;stroke-miterlimit:4;stroke-dasharray:none;stroke-opacity:1"
       d="m 2349.8404,213.92306 c 5.6412,6.70775 13.7553,18.50553 9.7701,29.31012"
       id="path4804-6"
       inkscape:connector-curvature="0"
       sodipodi:nodetypes="cc" />
    <path
       style="fill:none;fill-rule:evenodd;stroke:#000000;stroke-width:5;stroke-linecap:butt;stroke-linejoin:miter;stroke-miterlimit:4;stroke-dasharray:none;stroke-opacity:1"
       d="m 2336.1624,219.29658 c 7.0019,4.72218 10.5842,12.37538 9.2815,20.02858"
       id="path4806-4"
       inkscape:connector-curvature="0"
       sodipodi:nodetypes="cc" />
    <path
       style="fill:none;fill-rule:evenodd;stroke:#000000;stroke-width:5;stroke-linecap:butt;stroke-linejoin:miter;stroke-miterlimit:4;stroke-dasharray:none;stroke-opacity:1"
       d="m 2353.2599,188.03245 c 0,0 -35.4479,-21.60647 -53.7352,2.44251 -35.6607,46.8962 38.7373,138.52137 79.6258,196.37784 38.8076,54.91201 14.1666,184.65378 5.862,195.88928"
       id="path4808-6"
       inkscape:connector-curvature="0"
       sodipodi:nodetypes="cssc" />
    <path
       style="fill:none;fill-rule:evenodd;stroke:#000000;stroke-width:5;stroke-linecap:butt;stroke-linejoin:miter;stroke-miterlimit:4;stroke-dasharray:none;stroke-opacity:1"
       d="m 2151.5086,494.32328 c 0,0 13.1895,-40.0112 -5.862,-44.40772 -19.0516,-4.39652 -26.8677,7.81603 -32.7297,8.79303 -5.862,0.97701 -29.9505,-10.32714 -41.0342,-3.954 -19.54,11.23554 4.8851,43.47669 4.8851,43.47669 0,0 -40.5457,-20.5171 -47.3847,2.4425 -6.8391,22.9596 16.609,34.6836 16.609,34.6836 0,0 -25.376,18.2712 -17.0975,32.2412 15.632,26.3791 49.3387,0.977 49.3387,0.977 0,0 -32.3913,32.4736 -6.3506,43.4767 34.6837,14.655 49.2928,-13.6781 49.2928,-13.6781 0,0 11.6813,23.2095 32.7756,21.0056 32.7297,-3.4195 6.839,-53.2467 6.839,-53.2467 0,0 56.1318,25.4021 54.6663,-18.0746 -0.9985,-29.6212 -30.3332,-25.3561 -30.3332,-25.3561 0,0 28.9136,-29.8446 10.3506,-40.1032 -18.5631,-10.25852 -43.9652,11.7241 -43.9652,11.7241 z"
       id="path4810-8"
       inkscape:connector-curvature="0"
       sodipodi:nodetypes="cssscscscscscscsc" />
    <path
       style="fill:none;fill-rule:evenodd;stroke:#000000;stroke-width:5;stroke-linecap:butt;stroke-linejoin:miter;stroke-miterlimit:4;stroke-dasharray:none;stroke-opacity:1"
       d="m 2134.8995,764.46488 c 0,0 0.3965,-55.6892 -3.5115,-66.9248 -3.908,-11.2355 -10.1206,-30.2871 -11.0976,-49.3387 -0.6087,-11.8701 2.3966,-52.2697 2.3966,-52.2697"
       id="path4812-7"
       inkscape:connector-curvature="0"
       sodipodi:nodetypes="cssc" />
    <path
       style="fill:none;fill-rule:evenodd;stroke:#000000;stroke-width:5;stroke-linecap:butt;stroke-linejoin:miter;stroke-miterlimit:4;stroke-dasharray:none;stroke-opacity:1"
       d="m 2138.273,767.21198 c 0,0 75.6229,-10.7986 103.166,-76.0224 12.5036,-29.6092 9.3275,-54.7582 9.3275,-67.4593 0,-12.701 10.655,-35.6146 10.655,-35.6146 0,0 -51.7812,0.4885 -80.6028,40.5456 -30.8778,42.9149 -53.7812,97.5165 -42.5457,138.5507 z"
       id="path4814-5"
       inkscape:connector-curvature="0"
       sodipodi:nodetypes="csscsc" />
    <path
       style="fill:none;fill-rule:evenodd;stroke:#000000;stroke-width:5;stroke-linecap:butt;stroke-linejoin:miter;stroke-miterlimit:4;stroke-dasharray:none;stroke-opacity:1"
       d="m 2135.8765,768.86138 c 0,0 -23.9366,-47.7812 -43.9652,-60.4822 -14.6322,-9.279 -55.9553,-38.0536 -64.4823,-51.8732 -14.1665,-22.9596 -13.1895,-65.4593 -13.1895,-65.4593 0,0 13.1895,26.4251 24.9136,32.7756 11.724,6.3505 50.149,27.2196 61.5513,38.0572 19.2613,18.3073 38.5917,92.8154 35.1721,106.9819 z"
       id="path4816-0"
       inkscape:connector-curvature="0"
       sodipodi:nodetypes="csscssc" />
    <path
       style="fill:none;fill-rule:evenodd;stroke:#000000;stroke-width:5;stroke-linecap:butt;stroke-linejoin:miter;stroke-miterlimit:4;stroke-dasharray:none;stroke-opacity:1"
       d="m 2136.8535,770.32688 c 0,0 -78.7423,-10.4771 -96.2349,-23.0055 -36.1492,-25.8906 -34.1951,-78.1144 -34.1951,-78.1144 0,0 12.701,20.0746 27.3561,23.4941 14.655,3.4195 63.0167,6.793 103.0739,77.6258 z"
       id="path4818-0"
       inkscape:connector-curvature="0"
       sodipodi:nodetypes="cscsc" />
    <ellipse
       style="fill:none;fill-opacity:1;stroke:#4b43a9;stroke-width:5;stroke-miterlimit:4;stroke-dasharray:none;stroke-opacity:1"
       id="path4820-9"
       cx="-1997.0881"
       cy="826.60876"
       rx="19.051582"
       ry="11.235548"
       transform="matrix(-0.97337616,0.22921357,0.22921357,0.97337616,0,0)" />
    <path
       style="fill:none;fill-rule:evenodd;stroke:#000000;stroke-width:4;stroke-linecap:butt;stroke-linejoin:miter;stroke-miterlimit:4;stroke-dasharray:none;stroke-opacity:1"
       d="m 2208.1748,312.73845 c 0,0 4.5728,-24.02871 -14.1665,-22.60907 -32.2412,2.44251 -57.1548,43.96519 -57.1548,43.96519"
       id="path4822-8"
       inkscape:connector-curvature="0"
       sodipodi:nodetypes="csc" />
    <path
       style="fill:none;fill-rule:evenodd;stroke:#000000;stroke-width:4;stroke-linecap:butt;stroke-linejoin:miter;stroke-miterlimit:4;stroke-dasharray:none;stroke-opacity:1"
       d="m 2168.6981,301.94542 c 0,0 -16.2125,-20.12057 -26.9596,-7.41952 -10.747,12.70105 -10.747,40.54567 -10.747,40.54567"
       id="path4824-3"
       inkscape:connector-curvature="0"
       sodipodi:nodetypes="csc" />
    <path
       style="fill:none;fill-rule:evenodd;stroke:#000000;stroke-width:4;stroke-linecap:butt;stroke-linejoin:miter;stroke-miterlimit:4;stroke-dasharray:none;stroke-opacity:1"
       d="m 2134.549,314.83044 c 0,0 -7.9541,-23.72405 -20.1666,-7.60349 -7.6923,10.15382 8.3046,29.79863 8.3046,29.79863 0,0 -16.9128,-19.01874 -26.3332,-14.70105 -11.724,5.37352 -10.3045,17.63206 -10.3045,17.63206 0,0 14.1666,-2.44251 24.4251,3.41952"
       id="path4826-2"
       inkscape:connector-curvature="0"
       sodipodi:nodetypes="cscscc" />
    <path
       style="fill:none;fill-rule:evenodd;stroke:#000000;stroke-width:4;stroke-linecap:butt;stroke-linejoin:miter;stroke-miterlimit:4;stroke-dasharray:none;stroke-opacity:1"
       d="m 2071.3942,367.45069 c 0,0 -3.908,-13.32753 0.977,-19.67806 4.8851,-6.35053 14.6551,-8.30454 14.6551,-8.30454"
       id="path4828-0"
       inkscape:connector-curvature="0"
       sodipodi:nodetypes="csc" />
    <path
       style="fill:none;fill-rule:evenodd;stroke:#000000;stroke-width:4;stroke-linecap:butt;stroke-linejoin:miter;stroke-miterlimit:4;stroke-dasharray:none;stroke-opacity:1"
       d="m 2110.4744,351.68064 c 0,0 -62.0296,16.47236 -53.7352,38.10317 9.2818,24.20578 52.7582,-27.35612 52.7582,-27.35612 0,0 -46.0476,45.07079 -18.0746,56.17774 33.2181,13.18956 37.6147,-50.31571 37.6147,-50.31571 0,0 -20.5171,60.08575 18.5631,54.71223 39.0801,-5.37352 3.4195,-56.66624 3.4195,-56.66624 0,0 22.4711,45.43069 53.7352,34.68365 31.2641,-10.74705 -42.4997,-53.73523 -42.4997,-53.73523 0,0 72.8608,39.28729 74.2523,15.63206 1.9541,-33.21814 -77.1833,-27.84462 -77.1833,-27.84462"
       id="path4830-0"
       inkscape:connector-curvature="0"
       sodipodi:nodetypes="cscscscscsc" />
    <path
       style="fill:none;fill-rule:evenodd;stroke:#000000;stroke-width:4;stroke-linecap:butt;stroke-linejoin:miter;stroke-miterlimit:4;stroke-dasharray:none;stroke-opacity:1"
       d="m 2214.8759,340.00259 c 0,0 33.677,-22.12678 -11.0976,-26.91361 -42.0546,-4.49604 -55.2007,20.02859 -55.2007,20.02859"
       id="path4832-1"
       inkscape:connector-curvature="0"
       sodipodi:nodetypes="csc" />
    <path
       style="fill:none;fill-rule:evenodd;stroke:#000000;stroke-width:5;stroke-linecap:butt;stroke-linejoin:miter;stroke-miterlimit:4;stroke-dasharray:none;stroke-opacity:1"
       d="m 2197.7964,401.86038 c 0,0 111.2262,92.5734 110.5354,147.8411 -0.6909,55.2677 -18.6529,196.2003 -171.3299,218.3074"
       id="path4836-4"
       inkscape:connector-curvature="0" />
    <ellipse
       style="fill:none;fill-opacity:1;stroke:#4b43a9;stroke-width:5;stroke-miterlimit:4;stroke-dasharray:none;stroke-opacity:1"
       id="path4838-5"
       cx="-2165.0618"
       cy="284.85059"
       rx="21.416235"
       ry="12.089809"
       transform="matrix(-0.9933202,-0.11539059,-0.11539059,0.9933202,0,0)" />
    <path
       style="fill:none;fill-rule:evenodd;stroke:#000000;stroke-width:4;stroke-linecap:butt;stroke-linejoin:miter;stroke-miterlimit:4;stroke-dasharray:none;stroke-opacity:1"
       d="m 2145.9829,591.15228 c -11.0535,-5.1814 -20.7254,-15.1986 -25.9067,-25.9068 -4.7208,15.1987 -14.6229,25.9068 -26.5976,36.2695 -7.2539,-13.2412 -6.2176,-28.2096 2.0725,-41.7962 -14.0472,-0.1152 -29.1307,1.4968 -42.1416,-3.4543 4.9511,-11.2838 15.7743,-19.4588 27.2884,-26.5975 -10.3627,-1.9574 -20.7253,-7.0236 -27.9792,-15.1987 12.6655,-5.0662 26.7127,-9.4415 39.0328,-1.7271 -4.2616,-12.4095 -8.1549,-25.781 -2.7634,-39.72363 9.6718,5.06621 19.6891,13.24123 23.8342,27.63383 6.1025,-10.0173 5.6419,-27.28841 18.3074,-30.05179 8.175,6.79332 8.4053,22.56759 6.9085,39.03279 10.2476,-4.0299 20.8405,-9.0961 32.8152,-6.9084 2.4073,12.0012 -8.9304,18.6968 -17.2712,24.8704 12.0898,5.4117 22.7979,12.5504 30.0518,23.4888 -12.4352,4.6056 -24.525,5.757 -36.2694,4.4905 1.9574,12.2049 5.6419,23.0282 -1.3817,35.5786 z"
       id="path4840-3"
       inkscape:connector-curvature="0"
       sodipodi:nodetypes="ccccccccccccccccc" />
  </g>
  <g
     inkscape:groupmode="layer"
     id="layer6"
     inkscape:label="1"
     style="display:inline">
    <path
       sodipodi:nodetypes="cscscscscscssssscccscsssccssscsccsccccscscccccscccccccccccsssssssssscsscscccscssssssssss"
       inkscape:connector-curvature="0"
       d="m 415.8814,107.08481 c 0,0 -25.5125,-73.12791 18.8443,-79.98403 52.9949,-8.191257 51.791,65.441473 51.791,65.441473 0,0 44.8046,-43.162426 78.7498,-9.250985 42.2728,42.230732 -28.694,62.227412 -28.694,62.227412 0,0 60.7447,31.72335 23.549,73.70261 -29.0605,32.79771 -77.662,-24.73449 -77.662,-24.73449 0,0 -5.2171,61.61297 -58.5125,49.51788 -41.5382,-9.42685 -12.2205,-68.36215 -12.2205,-68.36215 0,0 -70.9699,13.87236 -70.3907,-37.24843 0.5805,-51.244214 74.5456,-31.30929 74.5456,-31.30929 z m 71.6741,31.16259 c 0,13.19482 -10.6966,23.89134 -23.8914,23.89134 -13.1948,0 -23.8913,-10.69652 -23.8913,-23.89134 0,-13.19482 10.6965,-23.89133 23.8913,-23.89133 13.1948,0 23.8914,10.69651 23.8914,23.89133 z m -49.958,433.11135 51.0456,-60.34551 m -47.8315,104.02207 c 0,0 46.5275,34.65195 84.1391,4.155 27.7946,-22.537 10.3874,-51.93767 10.3874,-51.93767 0,0 9.2021,-21.81382 -2.2242,-36.35638 -11.4263,-14.54255 -23.6735,-5.62331 -34.1321,-11.52408 -7.8974,-4.45572 -12.9701,-12.94535 -20.7751,-17.56101 -18.2257,-10.77824 -59.3069,-22.75479 -59.3069,-22.75479 m 0.098,-5.29157 c 0,0 28.0464,116.34041 22.8526,183.8594 -5.1938,67.51897 -19.2343,141.95722 -119.4567,129.84418 -74.591,-9.01518 -84.8325,-33.93954 -87.2552,-50.89891 -5.1937,-36.35639 16.5712,-69.5965 16.5712,-69.5965 0,0 61.4266,16.99142 87.3041,19.73632 33.4558,3.54876 98.6816,9.34878 98.6816,9.34878 m -266.96,-582.74076 c 0,0 -48.4689,39.1016 -68.5576,94.52658 -24.9316,68.78629 17.6587,150.61927 17.6587,150.61927 m -23.8914,116.3404 76.8678,-76.86777 m -19.7851,118.41791 c 0,0 -133.6185,-75.55457 -87.2065,-141.27049 26.017,-36.83814 50.899,-17.6588 50.899,-17.6588 0,0 21.479,-11.68201 34.3276,-3.11627 15.5814,10.38754 11.3285,34.27887 11.3285,34.27887 l 12.514,12.46505 43.7255,23.89133 z m 100.8079,-71.67399 c 0,0 -19.8854,79.07542 38.4339,86.26544 75.8291,9.34878 77.9065,-59.25785 77.9065,-59.25785 M 24.8271,240.01558 c 37.2153,4.89674 61.2092,-1.95868 111.6456,14.69021 m -88.1412,49.94665 80.7961,-1.46902 M 602.1518,472.12065 C 585.9782,448.3193 558.3783,430.75048 528.7009,416.29791 m 108.7073,-7.34509 -70.5128,-26.44236 m -4.4071,-52.88469 c 40.025,2.08685 73.6278,1.78194 110.1765,16.15921 m -184.5462,10.25706 c -4.2251,13.12935 -15.7893,21.1536 -25.8294,17.92263 -10.04,-3.23092 -14.7541,-16.49351 -10.529,-29.62283 4.2251,-13.12929 15.7892,-21.15352 25.8293,-17.92262 10.0401,3.23086 14.7541,16.49347 10.5291,29.62282 z M 266.4301,613.48227 c -11.7756,55.09146 -58.5731,97.51228 -104.5256,94.74952 -45.9522,-2.76272 -73.6581,-49.66276 -61.8826,-104.75417 11.7755,-55.09142 58.5731,-97.51222 104.5254,-94.74954 45.9523,2.76267 73.6582,49.66272 61.8828,104.75419 z M 166.819,395.22849 c 0,0 66.2812,50.03511 135.9614,64.15392 99.2473,20.10975 224.3522,39.0167 274.398,-50.42959 56.8432,-101.5951 20.5664,-167.46822 20.5664,-167.46822 0,0 39.7988,-126.72901 14.0327,-155.716049 C 600.0254,72.54738 566.8954,82.830518 566.8954,82.830518 M 404.9947,79.080847 c 0,0 -62.565,-23.629289 -115.744,-13.878569 0,0 -65.5212,-60.5155541 -100.705,-51.415679 -30.0627,7.775363 -50.9605,71.440676 -40.3209,120.305341 m 81.3464,161.72032 c -4.2251,13.12935 -15.7894,21.15359 -25.8294,17.92261 -10.0401,-3.23092 -14.7541,-16.49351 -10.529,-29.62282 4.2251,-13.12936 15.7893,-21.1536 25.8294,-17.92263 10.04,3.23091 14.7539,16.49352 10.529,29.62284 z m 101.1216,86.94368 c -13.4953,-2.84786 -22.6698,-13.52247 -20.492,-23.84233 2.1778,-10.31985 14.8833,-16.37706 28.3784,-13.52914 13.4953,2.8479 22.6698,13.52248 20.4919,23.84233 -2.1778,10.31981 -14.8832,16.37701 -28.3783,13.52914 z"
       style="fill:none;fill-rule:evenodd;stroke:#ff8a12;stroke-width:10.63202763;stroke-linecap:butt;stroke-linejoin:miter;stroke-miterlimit:4;stroke-dasharray:none;stroke-opacity:1"
       id="path5623" />
    <path
       sodipodi:nodetypes="cscscscscscssssscccscsssccssscsccsccccscscccccscccccccccccsssssssssscsscscccscssssssssss"
       inkscape:connector-curvature="0"
       d="m 2938.9586,104.29517 -0.9134,-3.18529 -0.9823,-4.228288 -0.9873,-4.228278 -0.6149,-4.026306 -0.6169,-4.026296 -0.6189,-4.026306 -0.2491,-3.441254 -0.2485,-3.441264 0,-3.58486 0,-3.58487 0.3335,-3.625428 0.3399,-3.625417 0.754,-3.562912 0.7645,-3.562912 1.264,-3.397341 1.2789,-3.397343 1.8638,-3.128712 1.8832,-3.128714 2.3807,-2.862828 2.7475,-2.651219 3.1351,-2.413845 3.5421,-2.150704 3.9678,-1.861801 4.41,-1.54713 4.8675,-1.206697 5.3382,-0.840497 6.4216,-0.537968 5.94,-0.08275 5.465,0.343729 4.9997,0.741479 4.5467,1.110493 4.1083,1.450779 3.6871,1.762329 3.2846,2.045148 2.9025,2.299233 2.5413,2.524589 2.051,2.805151 2.0384,2.805152 1.4626,3.083461 1.4552,3.083459 0.9665,3.246838 0.9639,3.24684 0.5611,3.295287 0.5621,3.295284 0.2426,3.228802 0.2463,3.228802 0.01,3.047388 0.011,3.047388 -0.152,2.751044 -0.147,2.751032 -0.4943,4.15333 -0.4797,4.153319 -0.5655,3.177527 2.7548,-1.80523 7.6174,-4.467501 5.7406,-2.853745 5.7861,-2.853755 6.9171,-2.874281 7.5044,-2.650935 7.9421,-2.249792 8.2194,-1.670874 8.3254,-0.914167 8.251,0.02029 7.9908,1.132607 3.8393,1.03896 3.7043,1.383704 3.5467,1.750666 3.3674,2.139844 3.1673,2.551255 2.9476,2.98489 3.1424,3.930697 2.41,3.799598 1.7279,3.668934 1.0947,3.538666 0.5087,3.408822 -0.032,3.279384 -0.5273,3.15036 -0.9793,3.02175 -1.3892,2.89356 -1.7575,2.76578 -2.0848,2.63839 -2.3726,2.51146 -5.4501,4.64369 -6.1344,4.14084 -6.5162,3.64131 -6.6005,3.14504 -6.3912,2.65212 -5.8887,2.16251 -9.1006,2.86936 -3.5648,0.95057 2.5857,1.45871 6.3581,4.20679 3.9363,3.0546 4.0935,3.64637 3.9947,4.20645 3.6449,4.73477 3.0491,5.23133 1.1067,2.84807 1.1082,2.84809 0.5711,3.06462 0.5761,3.06462 0.1018,3.21712 -0.2492,3.31349 -0.6284,3.40588 -1.0344,3.49433 -1.4675,3.57878 -1.9268,3.65928 -2.4127,3.73582 -2.9246,3.80838 -3.4625,3.87695 -4.0261,3.9416 -3.3836,2.84114 -3.4045,2.33421 -3.4215,1.85461 -3.4343,1.40234 -3.441,0.9774 -3.4419,0.57979 -3.4358,0.20951 -3.4223,-0.13344 -6.7713,-1.18643 -6.6164,-2.2303 -6.3876,-3.05551 -6.0814,-3.66211 -5.6938,-4.05008 -5.2224,-4.21941 -4.3342,-4.03615 -4.3497,-4.03614 -2.8658,-3.063 -2.8739,-3.06302 -2.0716,-2.43068 -0.6415,2.64851 -1.0777,3.43917 -1.0665,3.43918 -1.7327,4.52512 -2.2237,4.98236 -2.7548,5.23944 -3.3285,5.29645 -3.947,5.15338 -4.6149,4.81024 -5.3354,4.26697 -6.1131,3.52363 -3.3673,1.42053 -3.5849,1.15967 -3.8112,0.8738 -4.0459,0.56289 -4.2898,0.227 -4.5432,-0.13393 -4.8063,-0.51984 -5.0796,-0.93078 -3.8484,-1.03515 -3.4225,-1.30792 -3.0172,-1.56067 -2.6321,-1.79334 -2.2667,-2.006 -1.9209,-2.19858 -1.5947,-2.37114 -1.2873,-2.52367 -0.864,-2.71234 -0.8654,-2.71233 -0.3646,-2.89712 -0.3644,-2.89711 0.059,-3.0017 0.061,-3.00168 0.405,-3.02613 0.4086,-3.02612 0.6729,-2.97037 0.6778,-2.97035 0.8612,-2.83444 0.8663,-2.83443 1.9508,-4.94038 1.9707,-4.9404 1.6905,-3.43457 1.7025,-3.43458 1.4463,-2.5748 -3.3981,0.5009 -8.9194,0.88078 -12.5434,0.32775 -7.0493,-0.33505 -7.2645,-0.82314 -7.2551,-1.42785 -7.0232,-2.14916 -6.5703,-2.98712 -3.0458,-1.84422 -2.8489,-2.09743 -2.6237,-2.36522 -2.37,-2.64758 -2.0871,-2.94453 -1.7747,-3.25606 -1.4314,-3.58215 -1.0572,-3.92282 -0.6504,-4.27806 -0.2098,-4.6479 0.2656,-4.64165 0.7357,-4.23751 1.1798,-3.8502 1.5969,-3.47973 1.9849,-3.12611 2.3435,-2.78931 2.6716,-2.46937 2.9677,-2.16625 3.2316,-1.88001 3.4626,-1.61058 7.4837,-2.48022 8.003,-1.60463 8.2507,-0.86372 8.2285,-0.25756 7.9412,0.21388 13.9891,1.3032 9.8065,1.57232 3.6937,0.7636 0,0 m 79.4229,31.45578 -1.2956,4.86023 -2.2506,4.52683 -3.0759,4.09647 -3.778,3.56912 -4.3613,2.94479 -4.8312,2.22349 -5.1908,1.40521 -5.4438,0.48995 -5.3335,-0.48995 -4.873,-1.40521 -4.323,-2.22349 -3.6788,-2.94479 -2.9354,-3.56912 -2.0888,-4.09647 -1.1335,-4.52683 -0.066,-4.86023 1.058,-4.86024 2.0876,-4.52685 3.0056,-4.09646 3.8061,-3.56912 4.4833,-2.94478 5.0311,-2.22349 5.4431,-1.40522 5.7143,-0.48994 5.5718,0.48994 5.0359,1.40522 4.393,2.22349 3.6499,2.94478 2.8133,3.56912 1.8886,4.09646 0.8817,4.52685 -0.2049,4.86024 0,0 m -64.6053,437.18603 4.2202,-5.0761 4.2045,-5.07611 4.1901,-5.07611 4.1766,-5.07612 4.1645,-5.0761 4.1537,-5.07612 4.1438,-5.0761 4.1352,-5.07611 4.128,-5.07609 4.1214,-5.07612 4.1165,-5.07611 4.1123,-5.07611 m -43.5388,105.00068 2.375,1.44284 6.619,3.54147 10.1117,4.4596 6.1246,2.20514 6.7015,1.99198 7.1708,1.63122 7.5278,1.12292 7.7667,0.46704 7.8835,-0.33643 7.8749,-1.28745 7.7394,-2.38603 7.4783,-3.63218 3.6032,-2.32954 3.4926,-2.69638 4.4908,-4.3377 3.4049,-4.44647 2.438,-4.5016 1.588,-4.50312 0.853,-4.45101 0.2302,-4.34529 -0.2823,-4.18595 -0.6868,-3.97296 -1.0906,-3.54627 -1.0771,-3.54628 -1.2758,-2.79861 -1.2666,-2.79859 -2.1125,-3.67291 -0.8833,-1.31965 0.9206,-3.66981 0.6617,-4.07123 0.3664,-5.10335 -0.1271,-2.89574 -0.1211,-2.89572 -0.5948,-3.06776 -0.5867,-3.06776 -1.0406,-3.08924 -1.3941,-3.04627 -1.7883,-2.96024 -2.2235,-2.83124 -2.4373,-2.48428 -2.4048,-1.98584 -2.3763,-1.54398 -2.3511,-1.15874 -4.6342,-1.38815 -4.5524,-0.52641 -8.8747,-0.27897 -4.3207,-0.65824 -4.2352,-1.60785 -3.0453,-1.86191 -2.8499,-2.1501 -5.3561,-4.79059 -5.3098,-4.82084 -2.7942,-2.18793 -2.9718,-1.91488 -8.1542,-4.11057 -9.5505,-4.06814 -10.1729,-3.86986 -10.0275,-3.5157 -16.574,-5.34564 -6.8754,-2.05894 m 0,-5.34133 1.1818,4.85353 1.1905,4.85352 1.1994,4.85352 1.2087,4.85353 1.2298,5.33426 1.2415,5.33428 1.2534,5.33428 1.2661,5.33427 1.1537,5.29709 1.1663,5.29711 1.1794,5.29711 1.1928,5.29708 1.2066,5.29711 0.997,4.94671 1.0091,4.94671 1.0215,4.94671 1.0342,4.9467 1.0473,4.94671 1.0608,4.94671 0.9737,5.14253 0.9882,5.14253 1.0031,5.14255 0.9014,5.16456 0.9164,5.16455 0.9315,5.16455 0.7912,5.10516 0.8057,5.10516 0.8205,5.10517 0.6385,4.96437 0.6517,4.96437 0.6654,4.96437 0.4385,4.74217 0.4498,4.74219 0.4615,4.74216 0.1865,4.43858 0.1951,4.43857 0.2036,4.43859 0.01,4.27923 0.014,4.27925 0.022,4.27924 -0.095,4.28774 -0.089,4.28773 -0.082,4.28775 -0.2499,4.25016 -0.2458,4.25017 -0.2415,4.25017 -0.463,4.16651 -0.4611,4.16652 -0.4595,4.16653 -0.7373,4.03681 -0.7389,4.03681 -0.7405,4.0368 -1.0775,3.86104 -1.0828,3.86103 -1.0883,3.86102 -1.4866,3.63919 -1.4961,3.63917 -1.5063,3.63918 -2.7765,5.166 -3.1671,4.94778 -3.5849,4.71227 -4.0293,4.45953 -4.4996,4.18948 -4.9948,3.90216 -5.5141,3.59756 -6.0556,3.27567 -6.6179,2.93654 -7.1982,2.58011 -7.7943,2.20643 -8.403,1.81543 -9.0218,1.40719 -9.6467,0.98165 -10.2739,0.53887 -10.9001,0.0787 -11.5206,-0.39859 -12.1326,-0.89321 -17.4623,-1.88853 -15.4399,-2.22962 -13.5283,-2.53542 -11.7351,-2.80589 -10.0656,-3.04105 -8.5233,-3.24094 -7.11,-3.40552 -5.8271,-3.53478 -4.6742,-3.62877 -3.6501,-3.68742 -2.7538,-3.71081 -1.9818,-3.69887 -1.3325,-3.65164 -0.8029,-3.56911 -0.2387,-3.3747 -0.2421,-3.37469 0.2031,-3.41834 0.1958,-3.41832 0.5203,-3.35921 0.5106,-3.35917 0.7837,-3.2778 0.7725,-3.27779 0.9955,-3.17414 0.9838,-3.1741 1.1587,-3.04818 1.1467,-3.04817 1.2753,-2.89993 1.2636,-2.89997 2.734,-5.26618 2.6914,-5.26616 2.6815,-4.40607 2.6492,-4.40605 2.3065,-3.36777 2.2863,-3.36778 2.2312,-2.90802 2.2151,-2.90801 11.1585,2.72317 13.4461,3.0994 13.5262,3.09937 16.3973,3.35914 16.5081,3.35915 15.4514,2.63017 12.986,1.65151 36.1355,3.03085 36.3711,3.03084 43.5372,3.37511 m -313.6779,-588.22315 -3.8202,3.52063 -3.8003,3.52063 -3.986,4.19871 -3.9647,4.19871 -3.1186,3.76312 -3.106,3.76312 -3.0938,3.76311 -3.2426,4.63728 -3.231,4.63728 -3.2207,4.63727 -2.3505,3.92757 -2.3467,3.92759 -2.2266,4.20486 -2.2251,4.20487 -2.0507,4.46532 -2.0525,4.4653 -1.8253,4.70895 -1.8308,4.70892 -1.5523,4.93569 -1.5621,4.93571 -1.2333,5.14562 -1.248,5.14562 -0.5577,3.27252 -0.5646,3.27252 -0.3655,3.30234 -0.3739,3.30233 -0.1884,3.32338 -0.1978,3.32336 -0.027,3.33567 -0.036,3.33566 0.2624,4.44872 0.2433,4.4487 0.2244,4.44872 0.5851,4.41132 0.5649,4.41131 0.545,4.41131 0.8407,4.32714 0.8207,4.32716 0.8009,4.32715 1.0348,4.19621 1.0154,4.19621 0.9967,4.19622 1.1715,4.0185 1.1536,4.01852 1.1363,4.01851 1.2544,3.79406 1.239,3.79404 1.2234,3.79407 1.9252,5.28425 1.8955,5.28425 1.9016,4.80726 1.8775,4.80726 2.3163,5.26866 2.288,5.26867 2.2603,5.26866 2.5091,5.15332 2.4834,5.15333 1.941,3.68496 m -25.5467,117.43495 5.5227,-5.17274 5.4872,-5.17271 5.4533,-5.17275 5.4211,-5.17271 5.3904,-5.17274 5.3611,-5.17272 5.3335,-5.17273 5.3072,-5.17274 5.2823,-5.17271 5.2591,-5.17274 5.2371,-5.17272 5.2166,-5.17273 5.1976,-5.17272 5.1798,-5.17275 5.1635,-5.17271 m -24.3345,119.53189 -5.5607,-3.40658 -7.0954,-4.77319 -7.0875,-4.77316 -4.5803,-3.37996 -4.5786,-3.37996 -4.963,-3.95802 -4.9634,-3.95804 -5.1208,-4.47298 -5.1247,-4.47297 -5.0584,-4.92478 -5.0669,-4.92479 -4.7785,-5.31346 -4.7933,-5.31345 -2.22,-2.78277 -2.2246,-2.78274 -2.0704,-2.85625 -2.0758,-2.85625 -1.8939,-2.92187 -1.9003,-2.92182 -1.6911,-2.9796 -1.698,-2.97955 -1.461,-3.02938 -1.4691,-3.02939 -1.2043,-3.07131 -1.2128,-3.07131 -0.9203,-3.10534 -0.9292,-3.10535 -0.6085,-3.13151 -0.6179,-3.13149 -0.2692,-3.14975 -0.2786,-3.14975 0.099,-3.1601 0.089,-3.16012 0.4958,-3.16257 0.4857,-3.1626 0.9219,-3.15716 0.912,-3.15717 1.3777,-3.14384 1.3686,-3.14386 1.8643,-3.12265 1.8557,-3.12263 2.3648,-3.16402 2.357,-3.16402 4.6748,-5.11397 4.6047,-4.01108 4.5052,-3.01937 4.3716,-2.13888 4.2018,-1.36955 3.9925,-0.7114 3.743,-0.16447 3.4528,0.27129 3.1215,0.59586 5.0875,1.72068 3.2813,1.68471 1.1628,0.75925 3.5406,-1.70741 3.9104,-1.56769 4.8801,-1.54008 5.5072,-1.1348 5.791,-0.35179 2.894,0.23575 2.8351,0.57315 2.7317,0.95775 2.5846,1.38955 2.7997,2.1165 2.3676,2.38068 1.9687,2.58957 1.6034,2.74316 1.127,2.86296 1.121,2.86296 0.6024,2.83839 0.5972,2.8384 0.433,5.18528 -0.046,4.25144 -0.3835,3.93198 4.2457,4.19412 4.2333,4.19412 4.2221,4.19412 8.8276,4.82322 8.8151,4.82322 8.805,4.82323 8.7968,4.82322 8.7906,4.82322 -3.7372,5.12612 -3.7526,5.12612 -3.7688,5.12612 -3.7862,5.12612 -3.8049,5.12613 -3.8239,5.12612 -3.8447,5.12613 -3.866,5.12612 -3.8888,5.12612 -3.9124,5.12612 -3.9374,5.12613 -3.9631,5.12612 -3.9902,5.12613 -4.0186,5.12612 -4.0476,5.12611 -4.0786,5.12613 -4.1101,5.12614 -4.1431,5.12612 m 105.8507,-72.34821 -0.7982,3.44392 -0.8079,4.57063 -0.8159,4.57062 -0.3797,3.07456 -0.3834,3.07454 -0.2667,3.4519 -0.271,3.45189 -0.08,3.71763 -0.084,3.71764 0.1814,3.87177 0.1768,3.87178 0.52,3.91428 0.5163,3.9143 0.9382,3.8452 0.9359,3.84523 1.4378,3.66451 1.4373,3.66452 1.8647,3.45926 2.1778,3.28521 2.5114,3.08324 2.8663,2.85339 3.2415,2.59564 3.6377,2.30999 4.0532,1.99642 4.489,1.65497 4.9432,1.28561 5.4158,0.88834 7.1426,0.65866 6.7199,0.2247 6.3068,-0.1822 5.9033,-0.562 5.5104,-0.9147 5.1288,-1.24033 4.7593,-1.53886 4.4019,-1.81032 4.0573,-2.05466 3.726,-2.27193 6.5133,-5.08732 2.6802,-2.81566 2.6749,-2.81566 2.158,-2.97931 2.1536,-2.97931 1.6933,-3.0346 1.6902,-3.03461 1.2864,-2.98153 1.2842,-2.98155 0.9365,-2.82012 0.9353,-2.82013 1.2857,-5.1007 0.6278,-3.85797 0.6275,-3.85796 0.2263,-2.95725 m -364.2537,-233.85131 14.435,1.36701 13.4705,0.67192 26.3518,0.92679 13.9963,1.08894 15.2599,2.06207 17.0332,3.45222 9.3322,2.37773 9.9518,2.88167 m -85.7424,50.41662 82.8196,-1.48284 m 483.4011,170.52651 -3.5996,-4.36035 -3.5765,-4.36035 -4.0293,-4.08389 -4.0093,-4.08389 -4.4117,-3.82587 -4.3946,-3.82585 -4.7462,-3.58625 -4.7318,-3.58625 -5.0325,-3.36508 -5.02,-3.36509 -5.2692,-3.16234 -5.2592,-3.16234 -5.4559,-2.97804 -5.4477,-2.97801 -5.5921,-2.81215 -5.5853,-2.81214 m 109.694,-7.41413 -14.25,-5.33823 -14.2238,-5.33823 -14.2012,-5.33823 -14.1826,-5.33823 -14.1685,-5.33824 m -2.592,-53.38218 29.4216,1.39647 14.053,0.86365 13.7449,1.24321 13.5332,1.82475 13.4176,2.60825 13.4,3.59372 13.4849,4.78116 m -187.605,10.35353 -2.0367,4.71616 -2.605,4.16029 -3.0701,3.53169 -3.4328,2.83033 -3.6926,2.05622 -3.8499,1.20937 -3.9036,0.28976 -3.8525,-0.70258 -3.5275,-1.67759 -2.9698,-2.50668 -2.3691,-3.21551 -1.725,-3.80412 -1.0372,-4.27248 -0.3058,-4.62059 0.47,-4.84846 1.2889,-4.9561 2.0455,-4.71612 2.6379,-4.16028 3.1214,-3.53168 3.4944,-2.83032 3.7562,-2.05622 3.9063,-1.20939 3.9445,-0.28979 3.8708,0.70256 3.5189,1.67758 2.9366,2.50669 2.3178,3.2155 1.6634,3.80412 0.9737,4.27247 0.2494,4.62061 -0.5107,4.84845 -1.3074,4.95611 0,0 m -230.9823,259.86216 -1.7782,5.13448 -1.8001,5.13445 -2.2337,4.96055 -2.2595,4.96055 -2.6676,4.7626 -2.6966,4.76259 -3.078,4.54062 -3.1102,4.54059 -3.463,4.29458 -3.4975,4.29457 -3.82,4.0245 -3.8561,4.0245 -4.1459,3.7304 -4.1827,3.73041 -4.4381,3.41226 -4.4744,3.41225 -4.6923,3.07008 -4.7273,3.07008 -4.9054,2.70386 -4.9379,2.70388 -10.1768,4.62722 -10.4126,3.79864 -10.5458,2.92199 -10.5707,1.99726 -10.4843,1.02446 -10.2857,0.003 -9.7441,-1.03612 -8.9016,-2.02718 -8.0185,-2.96508 -7.1043,-3.84981 -6.1698,-4.68144 -2.6157,-2.72992 -2.607,-2.72993 -2.1382,-3.09259 -2.133,-3.09258 -1.6608,-3.42865 -1.6602,-3.42866 -1.1865,-3.73815 -1.1905,-3.73816 -0.7166,-4.02107 -0.7261,-4.02107 -0.2523,-4.27744 -0.2671,-4.27742 0.2062,-4.50719 0.1856,-4.5072 0.6585,-4.7104 0.6328,-4.7104 1.1061,-4.88701 1.075,-4.88701 1.5492,-5.03706 1.5139,-5.03708 1.9895,-5.16054 1.9506,-5.16052 2.371,-5.13447 2.3308,-5.13447 2.6735,-4.96055 2.6348,-4.96053 2.947,-4.76261 2.9102,-4.76258 3.1937,-4.5406 3.1596,-4.54061 3.4155,-4.29456 3.3843,-4.29457 3.6139,-4.0245 3.586,-4.02451 3.7903,-3.73039 3.7656,-3.7304 3.9451,-3.41225 3.9239,-3.41227 4.0793,-3.07006 4.0615,-3.07009 4.193,-2.70387 4.1782,-2.70387 8.5603,-4.62722 8.7081,-3.79864 8.8134,-2.92199 8.8753,-1.99728 8.8933,-1.02445 8.8654,-0.003 8.5863,1.03613 8.072,2.02718 7.533,2.96507 6.968,3.84982 6.3745,4.68142 2.8736,2.72993 2.8779,2.72994 2.5465,3.09259 2.5503,3.09258 2.2029,3.42864 2.2061,3.42866 1.842,3.73816 1.8443,3.73815 1.4624,4.02108 1.464,4.02109 1.0636,4.27742 1.0635,4.27741 0.6442,4.50721 0.6417,4.50719 0.2022,4.7104 0.197,4.71039 -0.2633,4.88701 -0.2721,4.88703 -0.7549,5.03706 -0.7678,5.03706 -1.2741,5.16054 -1.2915,5.16053 0,0 m -93.9025,-220.30702 5.7923,4.05709 5.7819,4.05712 6.658,4.30884 6.6485,4.30884 8.6556,5.15124 8.6464,5.15122 4.9608,2.73263 4.9593,2.73265 5.3241,2.7526 5.3236,2.75262 5.6436,2.70901 5.6441,2.70901 11.841,5.20378 12.3071,4.86244 12.6853,4.394 12.9731,3.79848 13.1686,3.07583 19.3801,3.67199 19.4074,3.672 19.9853,3.23322 20.1764,2.72944 20.2097,2.06724 20.0804,1.24661 19.7844,0.26756 19.3189,-0.86997 9.4318,-0.91105 9.2518,-1.25484 9.0512,-1.61845 8.8296,-2.00182 8.5884,-2.40504 8.3276,-2.82806 8.0486,-3.27084 7.7516,-3.73348 7.438,-4.21588 7.1092,-4.71812 6.766,-5.24014 3.2035,-2.89099 3.207,-2.891 3.0195,-3.1718 3.0246,-3.17181 2.8307,-3.46252 2.8376,-3.46253 2.6375,-3.76315 2.6473,-3.76316 2.4419,-4.07368 2.454,-4.07367 2.5422,-4.7538 2.5599,-4.75379 2.3137,-4.64534 2.3317,-4.64538 2.0968,-4.53414 2.1145,-4.53417 1.8906,-4.42015 1.908,-4.42016 1.6947,-4.30336 1.7118,-4.30338 1.5089,-4.18379 1.5254,-4.1838 1.6478,-5.33183 1.6754,-5.33182 1.7034,-5.33183 1.2283,-4.99069 1.2529,-4.99067 1.2778,-4.9907 0.8564,-4.63466 0.8775,-4.63467 0.899,-4.63469 0.531,-4.2638 0.5487,-4.26381 0.5664,-4.2638 0.2521,-3.87809 0.2665,-3.87807 0.2807,-3.87808 0.035,-5.21623 0.06,-5.21623 -0.2384,-4.59306 -0.2206,-4.59306 -0.4361,-3.94759 -0.4237,-3.94759 -0.5536,-3.27984 -0.5455,-3.27984 -1.123,-4.46723 -1.1107,-4.46722 -1.0778,-3.05742 2.3126,-5.11122 2.3498,-5.11122 2.3877,-5.11121 2.4268,-5.11124 1.9252,-4.31464 1.9532,-4.31463 1.982,-4.31465 2.0111,-4.31463 2.0409,-4.31463 2.2471,-5.12002 2.289,-5.12 2.3325,-5.12 2.3767,-5.12 2.4221,-5.12002 1.971,-4.49342 2.006,-4.49343 2.0418,-4.49343 1.9086,-4.49709 1.9444,-4.49709 1.9811,-4.49709 1.7556,-4.39014 1.7904,-4.3901 1.8257,-4.39012 1.499,-4.1725 1.5302,-4.1725 1.5616,-4.17251 1.1252,-3.84425 1.1504,-3.84424 1.1758,-3.84426 1.1761,-5.29339 0.7414,-4.92272 0.2541,-4.510586 -0.2868,-4.056951 -0.8804,-3.561841 -1.5252,-3.025238 -2.0958,-2.232591 -2.8119,-1.726474 -3.4134,-1.270344 -3.8974,-0.864144 -4.2617,-0.507917 -4.5056,-0.201645 -9.26,0.315684 -8.7977,0.941255 -7.4023,1.167164 -6.9955,1.413327 m -196.6337,-3.784938 -12.7129,-3.573023 -14.5425,-3.454734 -18.7967,-3.667732 -22.0799,-3.206373 -11.9413,-1.219429 -12.3515,-0.851202 -12.6094,-0.398687 -12.708,0.138135 -12.6411,0.759249 -12.4041,1.464656 -7.2188,-4.700495 -7.3169,-4.700496 -8.0625,-4.721127 -8.1763,-4.721127 -10.1688,-5.275503 -10.336,-5.275501 -11.3961,-5.210249 -11.8786,-4.91019 -12.1217,-4.417717 -12.1009,-3.73283 -11.7935,-2.855529 -11.1789,-1.7858132 -5.2598,-0.4316321 -4.9865,-0.092047 -4.6728,0.2715878 -4.3197,0.6592765 -6.6641,2.1153 -5.8556,3.333017 -5.0307,4.446213 -2.1076,2.727441 -2.0958,2.727441 -1.6974,3.179512 -1.6891,3.179514 -1.2957,3.579322 -1.2927,3.579324 -0.9066,3.926871 -0.9089,3.926872 -0.5313,4.222155 -0.5398,4.222155 -0.1709,4.465179 -0.1852,4.465178 0.1754,4.655939 0.1555,4.655941 0.5087,4.794426 0.484,4.794445 0.8312,4.880671 0.8022,4.88067 1.1455,4.914645 1.113,4.91464 1.454,4.89634 1.4194,4.89637 1.7605,4.82579 1.7243,4.8258 2.0675,4.703 2.0309,4.70298 m 107.6115,163.24175 -1.7561,4.71616 -2.3828,4.16028 -2.9023,3.53171 -3.3158,2.83031 -3.6252,2.05622 -3.8309,1.20937 -3.9355,0.28977 -3.9394,-0.70258 -3.6694,-1.67759 -3.1605,-2.50668 -2.6071,-3.21551 -2.0072,-3.80413 -1.3596,-4.27247 -0.6619,-4.6206 0.086,-4.84846 0.8909,-4.9561 1.6631,-4.71612 2.3033,-4.16028 2.8464,-3.5317 3.2905,-2.83034 3.633,-2.05622 3.872,-1.20939 4.0046,-0.28977 4.0289,0.70258 3.7622,1.67764 3.24,2.50669 2.6629,3.21553 2.0327,3.80412 1.3513,4.27247 0.6211,4.62058 -0.1566,4.84844 -0.9797,4.95607 0,0 m 104.4768,87.76168 -4.8961,-1.4322 -4.406,-2.07609 -3.8337,-2.62317 -3.1784,-3.0735 -2.44,-3.42704 -1.6178,-3.68381 -0.7115,-3.84381 0.2799,-3.907 1.2859,-3.69552 2.1737,-3.23721 2.9475,-2.724 3.6074,-2.15585 4.1514,-1.53283 4.5792,-0.85485 4.8903,-0.12198 5.0828,0.6658 4.9198,1.43221 4.4226,2.07608 3.8409,2.62317 3.1759,3.0735 2.428,3.42704 1.5981,3.68381 0.6865,3.8438 -0.3069,3.90703 -1.3095,3.69549 -2.1901,3.23719 -2.9549,2.72399 -3.6047,2.15586 -4.1396,1.53283 -4.5595,0.85488 -4.8653,0.12199 -5.0559,-0.66581 0,0"
       style="display:inline;fill:none;fill-rule:evenodd;stroke:#ff8a12;stroke-width:10.73205185;stroke-linecap:butt;stroke-linejoin:miter;stroke-miterlimit:4;stroke-dasharray:none;stroke-opacity:1"
       id="path5623-6" />
  </g>
  <eggbot
     layer="0"
     node="0"
     lastpath="0"
     lastpathnc="0"
     totaldeltax="0"
     totaldeltay="0" />
</svg>
