<?xml version="1.0" encoding="utf-8"?>
<!-- Generator: Adobe Illustrator 21.0.2, SVG Export Plug-In . SVG Version: 6.00 Build 0)  -->
<!DOCTYPE svg PUBLIC "-//W3C//DTD SVG 1.1//EN" "http://www.w3.org/Graphics/SVG/1.1/DTD/svg11.dtd">
<svg version="1.1" id="Layer_1" xmlns="http://www.w3.org/2000/svg" xmlns:xlink="http://www.w3.org/1999/xlink" x="0px" y="0px"
	 viewBox="0 0 595.3 841.9" enable-background="new 0 0 595.3 841.9" xml:space="preserve">
<g id="_x34_4M3y6.tif">
	<g>
		<path fill="#FFFFFF" d="M464,642c-125,0-250,0-375,0c0-152.3,0-304.7,0-457c125,0,250,0,375,0C464,337.3,464,489.7,464,642z
			 M332.4,537.4c3.8,0.9,8.4,2.5,13.1,3.1c22.8,2.9,43.7-14.8,37.1-37.5c-0.3-1.2-0.3-2.7,0.2-3.8c4.7-10.3-2.8-24.6-17.1-25.7
			c-1.8-0.1-3.9-0.1-5.3-1c-7.1-4.7-14-9.7-21.4-14.9c1.4-0.2,2.4-0.4,3.5-0.6c15.3-2.5,29.8-7.4,42.1-17.1
			c4.3-3.4,7.2-2.5,10.9,0.1c5.5,3.8,10.9,7.6,16.6,11c1.3,0.8,3.6-0.1,5.4-0.3c-0.3-2,0.1-4.6-1-5.7c-3.2-3.3-7.1-6-10.7-9
			c-3-2.5-6.1-4.9-9.2-7.3c3.7-5.3,7.1-9.8,10.1-14.5c1.8-2.9,3.8-3.6,7.1-2.5c5.6,2,11.3,3.8,17.1,5.3c1.7,0.4,3.7-0.4,5.5-0.7
			c-1-1.7-1.7-3.9-3.2-5c-2.8-2-6-3.5-9.2-5c-10.6-4.9-10.6-4.9-7.4-16.1c3.1-10.9,3.1-11,14.4-8.3c3.2,0.8,6.4,1.7,9.7,2.4
			c2.3,0.5,4.6,0.9,6.9,0.8c1.3,0,3.6-1,3.6-1.6c0.1-1.4-0.6-3.4-1.7-4.1c-2.5-1.5-5.3-2.7-8.2-3.5c-5.1-1.5-10.2-3.1-15.5-3.7
			c-4.7-0.5-5.1-2.8-5-6.6c0.5-12.7-0.4-25.3-3.7-37.6c-0.4-1.5-0.3-3.3,0.1-4.9c1.3-5.5,3-10.9,4.2-16.4c3.9-18.2,8-36.4,5.5-55.3
			c-1.6-12.3-5.9-16.4-18.2-17.7c-8.7-0.9-17.5,0-25.9-3.6c-3.7-1.6-8.6-1-12.7-0.3c-5.1,0.9-10.1,2.9-14.2,4.1
			c-3.7-6.7-6.6-13.8-11.1-19.8c-5.8-7.6-14.3-10.3-23.7-8.1c-9.3,2.1-14.9,8.4-17.3,17.5c-0.7,2.7-1.1,5.4-1.7,8.4
			c-1.4-0.3-2.5-0.4-3.6-0.7c-14.4-3.4-28.8-7.4-43.7-6.7c-6,0.3-10.6-1.5-15.3-5.1c-12.6-9.6-26.1-17.8-41.7-21.9
			c-6.4-1.7-12.7-0.8-16.9,4.5c-5.5,6.8-10.9,13.8-15,21.5c-6.6,12.4-5.9,26-5.1,39.6c0.1,1.9-0.5,4.3-1.7,5.8
			c-12,14.4-20.8,30.4-24.4,49c-0.6,3.1-2.1,4.1-5.2,3.6c-4.8-0.7-9.6-1.3-14.4-1.3c-3.8-0.1-7.6,0.5-11.3,1.3c-1.1,0.2-2.7,2-2.7,3
			c0,0.9,1.7,2.2,2.9,2.8c1.1,0.6,2.6,0.5,3.9,0.6c6.6,0.7,13.3,1.1,19.9,2.2c1.8,0.3,4.5,2.4,4.6,3.8c0.5,6.7,0.2,13.5,0.2,20.8
			c-5.2,0.7-10.9,1.3-16.6,2.3c-1.5,0.3-2.7,2-4.1,3c1.4,0.9,2.7,2.4,4.3,2.6c4.4,0.7,9,0.6,13.4,1.3c2.2,0.4,5.4,1.3,6.2,2.9
			c2.3,4.3,3.6,9.2,5.2,13.6c-0.6,0.6-0.9,0.9-1.1,1c-16.9,2-26.2,18.3-26.2,33.4c0,14.4,6.8,25.7,17,34.8
			c9.7,8.8,20.1,16.7,30.6,25.2c-2.1,2.9-4.2,6.8-7.1,9.9c-13,14.1-20,30.5-19.4,49.8c0.5,18.7,7.5,34.3,24.3,43.7
			c16.7,9.3,33.3,6.7,49.2-2.9c1-0.6,2.1-1.1,3.8-2.1c-0.5,1.7-0.8,2.4-1,3.2c-5.5,18.9,0.5,32.3,18.4,40.3
			c13.9,6.3,28.5,9,43.7,8.9c27.3-0.2,47-15.4,52.5-42C329,568.7,330.3,553.1,332.4,537.4z"/>
		<path d="M332.4,537.4c-2.1,15.7-3.4,31.3-6.6,46.5c-5.5,26.7-25.2,41.8-52.5,42c-15.2,0.1-29.8-2.6-43.7-8.9
			c-17.9-8.1-23.9-21.4-18.4-40.3c0.2-0.8,0.5-1.5,1-3.2c-1.8,0.9-2.8,1.5-3.8,2.1c-15.9,9.6-32.5,12.2-49.2,2.9
			c-16.8-9.4-23.7-25-24.3-43.7c-0.5-19.3,6.5-35.7,19.4-49.8c2.9-3.1,5-7,7.1-9.9c-10.4-8.6-20.9-16.5-30.6-25.2
			c-10.2-9.2-16.9-20.4-17-34.8c0-15.1,9.3-31.3,26.2-33.4c0.3,0,0.5-0.4,1.1-1c-1.6-4.5-2.9-9.3-5.2-13.6c-0.9-1.7-4-2.6-6.2-2.9
			c-4.4-0.7-9-0.7-13.4-1.3c-1.5-0.2-2.8-1.7-4.3-2.6c1.3-1.1,2.6-2.8,4.1-3c5.7-1.1,11.4-1.6,16.6-2.3c0-7.3,0.3-14-0.2-20.8
			c-0.1-1.4-2.9-3.5-4.6-3.8c-6.6-1.1-13.2-1.5-19.9-2.2c-1.3-0.1-2.8-0.1-3.9-0.6c-1.2-0.6-2.9-1.9-2.9-2.8c0-1.1,1.6-2.8,2.7-3
			c3.7-0.8,7.5-1.3,11.3-1.3c4.8,0.1,9.6,0.6,14.4,1.3c3.2,0.5,4.6-0.5,5.2-3.6c3.6-18.6,12.4-34.6,24.4-49c1.2-1.4,1.8-3.9,1.7-5.8
			c-0.8-13.6-1.5-27.2,5.1-39.6c4.1-7.7,9.5-14.7,15-21.5c4.3-5.3,10.5-6.2,16.9-4.5c15.5,4.1,29.1,12.3,41.7,21.9
			c4.8,3.6,9.3,5.4,15.3,5.1c15-0.7,29.3,3.3,43.7,6.7c1.1,0.3,2.2,0.4,3.6,0.7c0.6-3,1-5.7,1.7-8.4c2.4-9.1,7.9-15.4,17.3-17.5
			c9.4-2.1,17.9,0.6,23.7,8.1c4.5,6,7.4,13.1,11.1,19.8c4.1-1.2,9-3.2,14.2-4.1c4.2-0.7,9.1-1.3,12.7,0.3c8.5,3.6,17.3,2.7,25.9,3.6
			c12.2,1.2,16.5,5.4,18.2,17.7c2.5,18.9-1.6,37.1-5.5,55.3c-1.2,5.5-2.9,10.9-4.2,16.4c-0.4,1.6-0.5,3.4-0.1,4.9
			c3.3,12.3,4.2,24.9,3.7,37.6c-0.2,3.8,0.3,6.1,5,6.6c5.2,0.6,10.4,2.2,15.5,3.7c2.8,0.8,5.7,2,8.2,3.5c1.1,0.7,1.8,2.7,1.7,4.1
			c0,0.7-2.3,1.6-3.6,1.6c-2.3,0.1-4.6-0.3-6.9-0.8c-3.2-0.7-6.4-1.7-9.7-2.4c-11.3-2.7-11.3-2.7-14.4,8.3
			c-3.2,11.2-3.1,11.1,7.4,16.1c3.2,1.5,6.4,3,9.2,5c1.5,1.1,2.1,3.3,3.2,5c-1.8,0.3-3.8,1.1-5.5,0.7c-5.8-1.5-11.5-3.3-17.1-5.3
			c-3.3-1.2-5.2-0.4-7.1,2.5c-3,4.8-6.4,9.3-10.1,14.5c3.1,2.4,6.1,4.8,9.2,7.3c3.6,2.9,7.5,5.7,10.7,9c1.1,1.1,0.7,3.8,1,5.7
			c-1.8,0.1-4.1,1-5.4,0.3c-5.7-3.4-11.2-7.2-16.6-11c-3.7-2.6-6.6-3.5-10.9-0.1c-12.3,9.7-26.8,14.5-42.1,17.1
			c-1.1,0.2-2.2,0.4-3.5,0.6c7.4,5.2,14.3,10.2,21.4,14.9c1.4,0.9,3.5,0.8,5.3,1c14.3,1.1,21.8,15.3,17.1,25.7
			c-0.5,1.1-0.5,2.6-0.2,3.8c6.6,22.8-14.3,40.4-37.1,37.5C340.8,539.9,336.2,538.3,332.4,537.4z M305.2,245.5
			c-2.1-1-2.8-1.5-3.7-1.7c-16.6-4.3-33.2-8.7-50.6-7.9c-6.3,0.3-11.1-1.9-15.8-6c-9.9-8.7-21.1-15.6-33.6-20.2
			c-6.9-2.5-12.5-1.5-17.4,4.3c-6.9,8.1-10.8,17.5-12.2,27.9c-0.6,4.6-0.1,9.3-0.1,14.5c2.1-0.5,2.8-0.9,3.3-0.8
			c1.9,0.4,4.4,0.4,5.4,1.6c0.7,0.9-0.3,3.5-1,5.2c-0.4,1-1.6,1.6-2.5,2.4c-15.8,14.9-26.2,32.9-31.4,54c-1.1,4.5,0.7,6.1,4.4,7.2
			c3.3,1,6.8,1.8,9.9,3.4c1.4,0.7,2,3,3,4.5c-1.7,0.6-3.4,1.8-5.1,1.7c-2.6-0.2-5.1-1.3-7.7-1.8c-6.2-1.4-6.6-1.4-6.6,4.7
			c0,5.1,0.1,10.6,2.1,15.1c0.8,1.9,6.6,1.7,10.1,2.4c0.2,0,0.4,0,0.5,0.1c1.1,1.1,2.2,2.2,3.3,3.3c-1.2,0.9-2.3,2.2-3.6,2.5
			c-2.8,0.6-5.8,0.7-9.6,1.2c2.4,5.9,4.5,10.9,6.5,16c1.4,3.6,3.6,4.3,7.4,3.5c10.4-2.3,19.1,5,20,15.6c0.3,3.2,1.6,7.2,3.9,9.1
			c6.1,5.1,12.5,10.2,19.6,13.6c34.1,16.4,70.2,25.5,108.1,27.3c19.3,0.9,38.3-0.7,55.8-9.9c4-2.1,7.7-4.9,11.9-7.6
			c-1.9-1.6-3.3-2.4-4-3.6c-0.9-1.5-1.2-3.4-1.8-5.1c1.8-0.3,3.7-1.4,5.3-0.9c8.6,2.2,8.6,2.4,14.1-4.9c1.3-1.7,2.5-3.6,3.7-5.3
			c1.8-2.6,2.1-4.5-1.5-6.2c-1.9-0.9-3-3.6-4.5-5.5c2.3-0.4,4.5-0.8,6.8-1.2c0.5-0.1,1,0.1,1.5,0.3c2.7,1.1,4.4,0.3,5.3-2.6
			c1.2-4.1,2.6-8.2,3.9-12.3c1.2-3.7-0.5-4.9-3.8-5c-3-0.1-6.1,0.2-9-0.4c-1.9-0.5-3.5-2.3-5.3-3.5c1.6-1.3,3.1-3.4,4.9-3.7
			c3.7-0.7,7.6-0.5,11.5-0.5c3.2,0,5.1-1.1,4.9-4.7c-0.5-8.1,0.8-16.8-1.7-24.2c-3.7-10.9-1.9-20.6,1.4-30.8
			c1.1-3.5,1.9-7.1,2.6-10.6c3.1-14.7,6.1-29.4,3.6-44.5c-1.5-9.1-5.6-11.7-15.1-9.8c4,14.3-2.6,23.6-14.3,30
			c3.4,5.3,7.2,10,9.7,15.4c5.9,13-0.2,26.7-13.2,30.5c-8.4,2.4-16.5,0.7-24-3.7c-3.5-2.1-6.6-4.7-9.8-6.9c-2.6,4-4.8,8.2-7.7,11.8
			c-7.3,9-18.8,12.4-28,8.9c-10-3.8-15-12.1-14.5-24.7c0.1-3.4,0.7-6.8,0.9-9.2c-7.4-2.5-14.4-4.2-20.8-7.2
			c-8.2-3.9-13-10.9-13.2-20.3c-0.2-9.1,5.2-15.2,12.6-19.6c2.8-1.6,6.1-2.8,9.3-3.4C293.7,246.1,298.7,246,305.2,245.5z
			 M232.2,553.6c-0.7-0.7-0.5-0.3-0.3-0.3c27.1,6.8,54.5,11.9,82.6,12.8c3.5,0.1,4.3-1.7,4.4-4.5c0.5-11.1,1.3-22.2,1.3-33.4
			c0-22.2-4.2-44-8.4-65.7c-0.5-2.6-1.7-4-4.6-4.1c-4.8-0.2-9.6-0.6-14.1-1c-2.7,4.8-4.9,9.7-7.9,14c-10.4,14.9-27.1,19.8-44.6,13.3
			c-16.5-6.2-23.1-19.8-22-37.9c0.4-6.1-1.1-8.3-6.6-10c-8.5-2.6-8.6-3.1-14,3.9c-7.4,9.4-14.6,19.1-22.2,29.1
			c6.5-1.1,11.8-2.7,17.2-2.8c31.3-0.4,49.2,27.2,46.6,55.1C238.5,532.6,234.8,542.7,232.2,553.6z M298,254.8c-2.8,0.4-6,0.5-9,1.3
			c-7.5,1.9-12.6,7-13,12.7c-0.5,7,2.9,12.4,11.2,15.1c6.4,2,13.2,2.8,19.9,3.7c4.8,0.6,5.7,1.6,4.6,6.3c-1.2,5.1-2.3,10.4-2.6,15.6
			c-0.4,5.7,1.7,10.6,7.3,13c5.5,2.5,10.8,1.4,15.5-2.2c6.1-4.6,9.2-11.1,11.3-18.3c0.6-2.2,2.2-4.8,4-5.6c1.1-0.5,3.7,2,5.4,3.3
			c5.7,4.2,10.9,9.3,17.2,12.4c6.8,3.4,14.6,1.1,18.3-3.5c3.7-4.5,3.6-12.1-1.1-18.6c-3.1-4.2-7.2-7.7-11.1-11.3
			c-4.2-3.8-4.1-5.3,0.8-7.9c4-2.1,8.1-4,11.7-6.6c5.3-3.7,7-9.5,5.3-15.4c-1.7-5.6-8.7-10.2-16.2-10.5c-8.6-0.4-15.7,3.5-22.9,7.6
			c-5.6,3.2-6.4,2.4-8-3.9c-1.7-6.8-3.7-13.8-7-19.9c-3.4-6.3-10.6-8.6-16.2-7c-6.8,2-11,6.8-11,14.8c0,6.7,1.1,13.5,2.3,20.1
			c1.1,5.8,0.5,6.9-5.5,6.3C305.6,255.9,302,255.3,298,254.8z M229.9,518.2c-0.3-2.9-0.6-5.9-1-8.9c-3.5-24.6-26.3-38.2-49.1-29.4
			c-25.1,9.6-40.6,41.1-33,66.9c7.1,23.9,30.2,34,52.2,22.3C219.3,558.5,228.3,540.6,229.9,518.2z M224.6,561.7
			c-1.7,7.4-3.8,14.2-4.7,21.1c-1.7,13.3,2.5,20.5,14.6,25.7c12.9,5.5,26.5,7.7,40.4,7.2c28.9-1,40.2-21.8,41.6-39.3
			C286.2,573.8,255.9,570.3,224.6,561.7z M350.6,480.2c-6.1,7.5-13.4,16.7-20.8,25.9c-0.5,0.6-0.6,1.5-0.7,2.3
			c-1.5,14.3,2.7,20,16.7,22.4c0.5,0.1,1,0.1,1.5,0.2c18.8,1.7,29.2-10.3,24.9-28.5c-0.4-1.6,0.1-3.6,0.8-5.2c3-7.4-1-13.5-9.1-14.2
			C359.9,482.7,356.1,481.4,350.6,480.2z M173.5,412.5c-0.6-0.4-1.2-0.8-1.8-1.2c-0.5-3.6-1.4-7.3-1.5-10.9
			c-0.2-7.9-6.1-11.6-13.2-8.3c-2.2,1-5,1.4-7.4,1c-11.9-2.4-21.6,3.5-24.6,15.3c-3,11.9,3.4,28.7,13.5,34.8c0.9,0.5,3,0.2,3.8-0.5
			C152.8,432.7,163.1,422.6,173.5,412.5z M228.8,444.1c-3,20.8,2.8,30.7,22.1,34.4c14,2.7,27.7-8,29.7-21.9
			C263.4,452.4,246.2,448.3,228.8,444.1z M183.3,419.3C172,430.6,161,441.6,149.6,453c4.3,3.1,8.8,6.6,13.7,9.7
			c1,0.6,3.8,0.2,4.5-0.7c8.8-11.2,17.4-22.6,26.2-34.2C190.3,424.8,186.5,421.8,183.3,419.3z M343.8,472.9
			c-7.2-3.6-13.5-6.7-20.9-10.4c2.1,10.2,3.8,18.8,5.7,28.4C333.7,484.7,338.2,479.4,343.8,472.9z"/>
		<path fill="#FFFFFF" d="M305.2,245.5c-6.5,0.5-11.5,0.7-16.3,1.5c-3.2,0.6-6.5,1.7-9.3,3.4c-7.4,4.3-12.7,10.5-12.6,19.6
			c0.2,9.3,5,16.3,13.2,20.3c6.4,3,13.4,4.7,20.8,7.2c-0.3,2.4-0.8,5.8-0.9,9.2c-0.4,12.7,4.5,20.9,14.5,24.7
			c9.3,3.6,20.8,0.1,28-8.9c2.9-3.6,5.1-7.7,7.7-11.8c3.2,2.3,6.3,4.9,9.8,6.9c7.4,4.4,15.6,6.2,24,3.7
			c13.1-3.8,19.1-17.6,13.2-30.5c-2.4-5.3-6.3-10.1-9.7-15.4c11.7-6.4,18.4-15.7,14.3-30c9.5-1.9,13.6,0.7,15.1,9.8
			c2.6,15.1-0.5,29.8-3.6,44.5c-0.7,3.6-1.5,7.2-2.6,10.6c-3.3,10.1-5.1,19.9-1.4,30.8c2.5,7.4,1.2,16.1,1.7,24.2
			c0.2,3.5-1.7,4.6-4.9,4.7c-3.8,0-7.7-0.2-11.5,0.5c-1.8,0.3-3.2,2.4-4.9,3.7c1.8,1.2,3.4,3.1,5.3,3.5c2.9,0.7,6,0.4,9,0.4
			c3.3,0.1,5.1,1.3,3.8,5c-1.4,4.1-2.7,8.2-3.9,12.3c-0.9,2.9-2.6,3.7-5.3,2.6c-0.5-0.2-1-0.3-1.5-0.3c-2.3,0.4-4.5,0.8-6.8,1.2
			c1.5,1.9,2.6,4.6,4.5,5.5c3.6,1.7,3.3,3.6,1.5,6.2c-1.2,1.8-2.4,3.6-3.7,5.3c-5.5,7.3-5.5,7.1-14.1,4.9c-1.6-0.4-3.5,0.6-5.3,0.9
			c0.6,1.7,0.9,3.6,1.8,5.1c0.7,1.2,2.1,2,4,3.6c-4.2,2.7-7.9,5.5-11.9,7.6c-17.5,9.2-36.6,10.8-55.8,9.9
			c-37.8-1.7-74-10.8-108.1-27.3c-7.1-3.4-13.5-8.5-19.6-13.6c-2.3-1.9-3.6-5.9-3.9-9.1c-0.9-10.5-9.6-17.8-20-15.6
			c-3.8,0.8-6,0.1-7.4-3.5c-2-5.1-4.1-10.1-6.5-16c3.8-0.4,6.8-0.5,9.6-1.2c1.3-0.3,2.4-1.6,3.6-2.5c-1.1-1.1-2.2-2.2-3.3-3.3
			c-0.1-0.1-0.3-0.1-0.5-0.1c-3.5-0.7-9.2-0.5-10.1-2.4c-2-4.5-2.1-10-2.1-15.1c0-6,0.4-6.1,6.6-4.7c2.6,0.6,5.1,1.7,7.7,1.8
			c1.7,0.1,3.4-1.1,5.1-1.7c-1-1.5-1.6-3.8-3-4.5c-3.1-1.6-6.5-2.4-9.9-3.4c-3.7-1.1-5.5-2.7-4.4-7.2c5.2-21.1,15.6-39.1,31.4-54
			c0.8-0.8,2.1-1.4,2.5-2.4c0.7-1.7,1.7-4.3,1-5.2c-1-1.2-3.5-1.2-5.4-1.6c-0.6-0.1-1.2,0.3-3.3,0.8c0-5.2-0.5-9.9,0.1-14.5
			c1.3-10.4,5.3-19.8,12.2-27.9c4.9-5.8,10.5-6.9,17.4-4.3c12.5,4.6,23.7,11.5,33.6,20.2c4.7,4.1,9.5,6.2,15.8,6
			c17.4-0.7,34,3.7,50.6,7.9C302.3,244,303.1,244.5,305.2,245.5z M212.7,350.4c-0.5-5.9-2.8-9.9-7.3-11.2c-4.6-1.3-9.1-0.1-11.2,4.1
			c-2.1,4.1-3.5,8.9-3.8,13.5c-0.4,4.8,2.9,8,7.7,9c4.7,1,8.7-0.4,10.9-4.9C210.6,357.7,211.5,354,212.7,350.4z M329.9,387
			c0.8,6.3,3.5,10.7,7.9,11.9c4.9,1.4,9.6-0.6,12-6.5c1.6-3.8,2.1-8.3,2.2-12.4c0-4-2.9-6.4-6.8-7.6c-3.8-1.1-7.3-0.1-9.4,2.8
			C333.3,378.8,331.9,383.1,329.9,387z M269.2,405.1c7.4-0.4,12-2,14.2-7.3c2-4.6,0.8-9-2.7-12.3c-5.4-5.3-12.1-7.4-19.6-5.8
			c-5.4,1.1-8.8,4.6-9.5,10.1c-0.7,5.1,2,8.8,6.2,10.9C261.9,402.8,266.5,404.1,269.2,405.1z"/>
		<path fill="#FFFFFF" d="M232.2,553.6c2.6-10.9,6.3-21,7.3-31.4c2.6-27.9-15.3-55.5-46.6-55.1c-5.4,0.1-10.7,1.7-17.2,2.8
			c7.7-10.1,14.8-19.7,22.2-29.1c5.5-6.9,5.5-6.4,14-3.9c5.5,1.7,7,4,6.6,10c-1.1,18.1,5.6,31.7,22,37.9
			c17.4,6.6,34.1,1.7,44.6-13.3c3-4.3,5.2-9.2,7.9-14c4.6,0.3,9.3,0.8,14.1,1c2.8,0.1,4.1,1.5,4.6,4.1c4.2,21.7,8.4,43.5,8.4,65.7
			c0,11.1-0.8,22.2-1.3,33.4c-0.1,2.8-0.9,4.6-4.4,4.5c-28.1-0.9-55.5-5.9-82.6-12.8C231.6,553.3,231.4,552.9,232.2,553.6z"/>
		<path fill="#FFFFFF" d="M298,254.8c4,0.5,7.6,1,11.2,1.4c6,0.6,6.6-0.4,5.5-6.3c-1.3-6.6-2.4-13.4-2.3-20.1c0-8,4.2-12.8,11-14.8
			c5.5-1.6,12.7,0.7,16.2,7c3.3,6.1,5.3,13.1,7,19.9c1.6,6.4,2.3,7.1,8,3.9c7.1-4,14.3-7.9,22.9-7.6c7.5,0.3,14.5,4.9,16.2,10.5
			c1.7,5.9,0,11.7-5.3,15.4c-3.7,2.6-7.7,4.5-11.7,6.6c-4.9,2.6-5,4.1-0.8,7.9c3.9,3.6,8,7.1,11.1,11.3c4.7,6.4,4.8,14,1.1,18.6
			c-3.7,4.6-11.5,6.9-18.3,3.5c-6.2-3.1-11.5-8.2-17.2-12.4c-1.8-1.3-4.4-3.8-5.4-3.3c-1.8,0.8-3.4,3.5-4,5.6
			c-2,7.2-5.1,13.7-11.3,18.3c-4.7,3.6-10,4.6-15.5,2.2c-5.6-2.5-7.7-7.4-7.3-13c0.4-5.3,1.4-10.5,2.6-15.6c1.1-4.7,0.2-5.7-4.6-6.3
			c-6.7-0.9-13.5-1.6-19.9-3.7c-8.3-2.7-11.7-8.1-11.2-15.1c0.4-5.8,5.5-10.9,13-12.7C292,255.3,295.2,255.2,298,254.8z
			 M338.3,254.6c-9-0.1-16.5,7-16.6,15.8c-0.1,7.8,8,15.4,16.5,15.5c8.5,0.1,15.6-6.8,15.8-15.4C354.3,262,347,254.6,338.3,254.6z"
			/>
		<path fill="#FFFFFF" d="M229.9,518.2c-1.7,22.3-10.6,40.3-30.9,51c-22,11.7-45.1,1.6-52.2-22.3c-7.7-25.8,7.9-57.3,33-66.9
			c22.9-8.8,45.6,4.9,49.1,29.4C229.4,512.3,229.6,515.3,229.9,518.2z"/>
		<path fill="#FFFFFF" d="M224.6,561.7c31.2,8.6,61.5,12.1,91.9,14.8c-1.4,17.5-12.7,38.3-41.6,39.3c-14,0.5-27.6-1.7-40.4-7.2
			c-12.1-5.2-16.3-12.5-14.6-25.7C220.8,575.9,223,569.1,224.6,561.7z"/>
		<path fill="#FFFFFF" d="M350.6,480.2c5.6,1.3,9.3,2.5,13.1,2.9c8.1,0.8,12.1,6.8,9.1,14.2c-0.6,1.6-1.2,3.6-0.8,5.2
			c4.4,18.2-6.1,30.2-24.9,28.5c-0.5,0-1-0.1-1.5-0.2c-13.9-2.3-18.2-8.1-16.7-22.4c0.1-0.8,0.3-1.7,0.7-2.3
			C337.1,496.8,344.5,487.7,350.6,480.2z"/>
		<path fill="#FFFFFF" d="M173.5,412.5c-10.4,10.1-20.7,20.2-31.2,30.1c-0.8,0.7-2.9,1.1-3.8,0.5c-10.1-6.1-16.5-23-13.5-34.8
			c3-11.8,12.7-17.7,24.6-15.3c2.3,0.5,5.2,0.1,7.4-1c7.1-3.3,13,0.4,13.2,8.3c0.1,3.7,1,7.3,1.5,10.9
			C172.3,411.7,172.9,412.1,173.5,412.5z"/>
		<path fill="#FFFFFF" d="M228.8,444.1c17.5,4.2,34.6,8.4,51.8,12.5c-2,13.9-15.7,24.6-29.7,21.9
			C231.6,474.8,225.8,464.8,228.8,444.1z"/>
		<path fill="#FFFFFF" d="M183.3,419.3c3.1,2.5,7,5.5,10.7,8.5c-8.9,11.6-17.4,23-26.2,34.2c-0.7,0.9-3.5,1.4-4.5,0.7
			c-4.9-3.1-9.4-6.6-13.7-9.7C161,441.6,172,430.6,183.3,419.3z"/>
		<path fill="#FFFFFF" d="M343.8,472.9c-5.6,6.6-10,11.9-15.2,18c-1.9-9.6-3.7-18.2-5.7-28.4C330.3,466.2,336.6,469.3,343.8,472.9z"
			/>
		<path d="M212.7,350.4c-1.2,3.5-2.2,7.3-3.8,10.6c-2.2,4.4-6.2,5.8-10.9,4.9c-4.8-1-8.1-4.2-7.7-9c0.4-4.6,1.7-9.4,3.8-13.5
			c2.1-4.2,6.6-5.4,11.2-4.1C209.9,340.5,212.2,344.5,212.7,350.4z"/>
		<path d="M329.9,387c1.9-3.9,3.4-8.2,5.9-11.7c2.1-3,5.6-3.9,9.4-2.8c3.9,1.1,6.8,3.5,6.8,7.6c0,4.2-0.6,8.6-2.2,12.4
			c-2.4,5.8-7.1,7.8-12,6.5C333.4,397.7,330.8,393.3,329.9,387z"/>
		<path d="M269.2,405.1c-2.7-1-7.3-2.3-11.5-4.4c-4.2-2.1-6.9-5.8-6.2-10.9c0.8-5.5,4.1-9,9.5-10.1c7.5-1.6,14.2,0.6,19.6,5.8
			c3.5,3.4,4.7,7.7,2.7,12.3C281.1,403.1,276.6,404.7,269.2,405.1z M270.6,399.8c2.3-1.6,5.1-2.5,6-4.4c1.6-3.1-0.2-6.2-3.3-7.2
			c-3.5-1.1-7.3-1.6-11-1.6c-1.3,0-3.4,2-3.7,3.3c-0.3,1.6,0.4,4.3,1.6,5.1C263.2,396.9,266.6,398,270.6,399.8z"/>
		<path d="M338.3,254.6c8.7,0.1,16,7.4,15.8,15.9c-0.2,8.6-7.3,15.5-15.8,15.4c-8.5-0.1-16.6-7.7-16.5-15.5
			C321.9,261.6,329.3,254.5,338.3,254.6z M338.3,277.9c5-0.1,8.5-3.6,8.4-8.4c-0.1-4.2-4.5-8.1-9.2-8c-4.1,0-7.6,4.1-7.5,8.9
			C330,275.4,332.9,278,338.3,277.9z"/>
		<path fill="#FFFFFF" d="M270.6,399.8c-3.9-1.8-7.4-2.9-10.3-4.8c-1.2-0.8-1.9-3.5-1.6-5.1c0.3-1.4,2.4-3.3,3.7-3.3
			c3.7,0,7.5,0.5,11,1.6c3.1,1,4.9,4.1,3.3,7.2C275.6,397.2,272.8,398.2,270.6,399.8z"/>
		<path fill="#FFFFFF" d="M338.3,277.9c-5.3,0.1-8.2-2.6-8.3-7.6c-0.1-4.7,3.4-8.8,7.5-8.9c4.7-0.1,9.1,3.8,9.2,8
			C346.7,274.3,343.2,277.9,338.3,277.9z"/>
	</g>
</g>
</svg>
