<?xml version="1.0" encoding="UTF-8" standalone="no"?>
<svg
   xmlns:dc="http://purl.org/dc/elements/1.1/"
   xmlns:cc="http://creativecommons.org/ns#"
   xmlns:rdf="http://www.w3.org/1999/02/22-rdf-syntax-ns#"
   xmlns:svg="http://www.w3.org/2000/svg"
   xmlns="http://www.w3.org/2000/svg"
   xmlns:xlink="http://www.w3.org/1999/xlink"
   xmlns:sodipodi="http://sodipodi.sourceforge.net/DTD/sodipodi-0.dtd"
   xmlns:inkscape="http://www.inkscape.org/namespaces/inkscape"
   height="800"
   width="3200"
   id="svg3491"
   version="1.1"
   inkscape:version="0.48.1 r9760"
   sodipodi:docname="warning2.svg">
  <title
     id="title16776">Egg warning label</title>
  <sodipodi:namedview
     pagecolor="#ffffff"
     bordercolor="#666666"
     borderopacity="1"
     objecttolerance="10"
     gridtolerance="10"
     guidetolerance="10"
     inkscape:pageopacity="0"
     inkscape:pageshadow="2"
     inkscape:window-width="1354"
     inkscape:window-height="683"
     id="namedview3495"
     showgrid="false"
     inkscape:zoom="0.361875"
     inkscape:cx="1600"
     inkscape:cy="400"
     inkscape:window-x="77"
     inkscape:window-y="0"
     inkscape:window-maximized="0"
     inkscape:current-layer="layer4"
     inkscape:showpageshadow="false" />
  <metadata
     id="metadata3499">
    <rdf:RDF>
      <cc:Work
         rdf:about="">
        <dc:format>image/svg+xml</dc:format>
        <dc:type
           rdf:resource="http://purl.org/dc/dcmitype/StillImage" />
        <dc:title>Egg warning label</dc:title>
        <cc:license
           rdf:resource="http://creativecommons.org/licenses/publicdomain/" />
        <dc:creator>
          <cc:Agent>
            <dc:title>Dan Newman</dc:title>
          </cc:Agent>
        </dc:creator>
        <dc:description>This drawing is intended for drawing on an egg with an Eggbot.  See http://www.egg-bot.com/ for information.</dc:description>
      </cc:Work>
      <cc:License
         rdf:about="http://creativecommons.org/licenses/publicdomain/">
        <cc:permits
           rdf:resource="http://creativecommons.org/ns#Reproduction" />
        <cc:permits
           rdf:resource="http://creativecommons.org/ns#Distribution" />
        <cc:permits
           rdf:resource="http://creativecommons.org/ns#DerivativeWorks" />
      </cc:License>
    </rdf:RDF>
  </metadata>
  <defs
     id="defs3497" />
  <g
     inkscape:groupmode="layer"
     id="layer4"
     inkscape:label="1 - test">
    <path
       inkscape:connector-curvature="0"
       style="fill:none;stroke:#000000;stroke-width:5"
       d="m 1600,0 10,0"
       id="path4635-8" />
    <path
       inkscape:connector-curvature="0"
       style="fill:none;stroke:#000000;stroke-width:5"
       d="m 1600,800 10,0"
       id="path4637-5" />
  </g>
  <g
     inkscape:groupmode="layer"
     id="layer5"
     inkscape:label="2 - skulls">
    <g
       transform="matrix(0.71113384,0,0,0.5739075,106.94752,101.62422)"
       inkscape:tile-y0="-176.94119"
       inkscape:tile-x0="-150"
       inkscape:tile-h="326.16995"
       inkscape:tile-w="300"
       inkscape:tile-cy="-13.856214"
       inkscape:tile-cx="0"
       id="g3622">
      <path
         style="fill:none;stroke:#000000;stroke-width:0.89442718"
         d="m -150,-2.7712434 0,-119.9999966 a 200,160 0 0 1 300,0 l 0,119.9999966 A 200,160 0 0 0 100,29.228757 l 0,120.000003 a 200,160 0 0 0 -34,-12.8 l 0,-40.000003 0,40.000003 a 200,160 0 0 0 -33,-6.4 l 0,-40.000003 0,40.000003 a 200,160 0 0 0 -33,-2.4 L 0,87.628757 0,127.62876 a 200,160 0 0 0 -33,2.4 l 0,-40.000003 0,40.000003 a 200,160 0 0 0 -33,6.4 l 0,-40.000003 0,40.000003 a 200,160 0 0 0 -34,12.8 l 0,-120.000003 a 200,160 0 0 0 -50,-32.0000004"
         id="path3493"
         inkscape:connector-curvature="0" />
      <path
         style="fill:#000000;stroke:#000000;stroke-width:0.89442718"
         d="m -100,-70.771243 a 35,28 0 1 1 70,0 35,28 0 0 1 -70,0"
         id="path3616"
         inkscape:connector-curvature="0" />
      <path
         style="fill:#000000;stroke:#000000;stroke-width:0.89442718"
         d="m 100,-70.771243 a 35,28 0 0 1 -70,0 35,28 0 1 1 70,0"
         id="path3618"
         inkscape:connector-curvature="0" />
      <path
         style="fill:#000000;stroke:#000000;stroke-width:0.89442718"
         d="m -30,21.228757 30,-72 30,72 z"
         id="path3620"
         inkscape:connector-curvature="0" />
    </g>
    <use
       height="800"
       width="3200"
       id="use3698"
       transform="translate(-3.6459446e-6,175.04179)"
       xlink:href="#g3622"
       inkscape:tiled-clone-of="#g3622"
       y="0"
       x="0" />
    <use
       height="800"
       width="3200"
       id="use12"
       transform="translate(-3.6459446e-6,350.08357)"
       xlink:href="#g3622"
       inkscape:tiled-clone-of="#g3622"
       y="0"
       x="0" />
    <use
       height="800"
       width="3200"
       id="use14"
       transform="translate(-3.6459446e-6,525.12536)"
       xlink:href="#g3622"
       inkscape:tiled-clone-of="#g3622"
       y="0"
       x="0" />
    <use
       height="800"
       width="3200"
       id="use3696"
       transform="translate(177.7834,87.233937)"
       xlink:href="#g3622"
       inkscape:tiled-clone-of="#g3622"
       y="0"
       x="0" />
    <use
       height="800"
       width="3200"
       id="use17"
       transform="translate(177.7834,262.27573)"
       xlink:href="#g3622"
       inkscape:tiled-clone-of="#g3622"
       y="0"
       x="0" />
    <use
       height="800"
       width="3200"
       id="use19"
       transform="translate(177.7834,437.31751)"
       xlink:href="#g3622"
       inkscape:tiled-clone-of="#g3622"
       y="0"
       x="0" />
    <use
       height="800"
       width="3200"
       id="use21"
       transform="translate(177.7834,612.3593)"
       xlink:href="#g3622"
       inkscape:tiled-clone-of="#g3622"
       y="0"
       x="0" />
    <use
       height="800"
       width="3200"
       id="use23"
       transform="translate(355.5669,-2.8999999e-6)"
       xlink:href="#g3622"
       inkscape:tiled-clone-of="#g3622"
       y="0"
       x="0" />
    <use
       height="800"
       width="3200"
       id="use25"
       transform="translate(355.5669,175.04179)"
       xlink:href="#g3622"
       inkscape:tiled-clone-of="#g3622"
       y="0"
       x="0" />
    <use
       height="800"
       width="3200"
       id="use27"
       transform="translate(355.5669,350.08357)"
       xlink:href="#g3622"
       inkscape:tiled-clone-of="#g3622"
       y="0"
       x="0" />
    <use
       height="800"
       width="3200"
       id="use29"
       transform="translate(355.5669,525.12536)"
       xlink:href="#g3622"
       inkscape:tiled-clone-of="#g3622"
       y="0"
       x="0" />
    <use
       height="800"
       width="3200"
       id="use31"
       transform="translate(533.35039,87.233937)"
       xlink:href="#g3622"
       inkscape:tiled-clone-of="#g3622"
       y="0"
       x="0" />
    <use
       height="800"
       width="3200"
       id="use33"
       transform="translate(533.35039,262.27573)"
       xlink:href="#g3622"
       inkscape:tiled-clone-of="#g3622"
       y="0"
       x="0" />
    <use
       height="800"
       width="3200"
       id="use35"
       transform="translate(533.35039,437.31751)"
       xlink:href="#g3622"
       inkscape:tiled-clone-of="#g3622"
       y="0"
       x="0" />
    <use
       height="800"
       width="3200"
       id="use37"
       transform="translate(533.35039,612.3593)"
       xlink:href="#g3622"
       inkscape:tiled-clone-of="#g3622"
       y="0"
       x="0" />
    <use
       height="800"
       width="3200"
       id="use39"
       transform="translate(711.13387,-2.8999999e-6)"
       xlink:href="#g3622"
       inkscape:tiled-clone-of="#g3622"
       y="0"
       x="0" />
    <use
       height="800"
       width="3200"
       id="use41"
       transform="translate(711.13387,175.04179)"
       xlink:href="#g3622"
       inkscape:tiled-clone-of="#g3622"
       y="0"
       x="0" />
    <use
       height="800"
       width="3200"
       id="use43"
       transform="translate(711.13387,350.08357)"
       xlink:href="#g3622"
       inkscape:tiled-clone-of="#g3622"
       y="0"
       x="0" />
    <use
       height="800"
       width="3200"
       id="use45"
       transform="translate(711.13387,525.12536)"
       xlink:href="#g3622"
       inkscape:tiled-clone-of="#g3622"
       y="0"
       x="0" />
    <use
       height="800"
       width="3200"
       id="use47"
       transform="translate(888.91725,87.233937)"
       xlink:href="#g3622"
       inkscape:tiled-clone-of="#g3622"
       y="0"
       x="0" />
    <use
       height="800"
       width="3200"
       id="use49"
       transform="translate(888.91725,262.27573)"
       xlink:href="#g3622"
       inkscape:tiled-clone-of="#g3622"
       y="0"
       x="0" />
    <use
       height="800"
       width="3200"
       id="use51"
       transform="translate(888.91725,437.31751)"
       xlink:href="#g3622"
       inkscape:tiled-clone-of="#g3622"
       y="0"
       x="0" />
    <use
       height="800"
       width="3200"
       id="use53"
       transform="translate(888.91725,612.3593)"
       xlink:href="#g3622"
       inkscape:tiled-clone-of="#g3622"
       y="0"
       x="0" />
    <use
       height="800"
       width="3200"
       id="use55"
       transform="translate(1066.7007,-2.8999999e-6)"
       xlink:href="#g3622"
       inkscape:tiled-clone-of="#g3622"
       y="0"
       x="0" />
    <use
       height="800"
       width="3200"
       id="use57"
       transform="translate(1066.7007,175.04179)"
       xlink:href="#g3622"
       inkscape:tiled-clone-of="#g3622"
       y="0"
       x="0" />
    <use
       height="800"
       width="3200"
       id="use61"
       transform="translate(1066.7007,525.12536)"
       xlink:href="#g3622"
       inkscape:tiled-clone-of="#g3622"
       y="0"
       x="0" />
    <use
       height="800"
       width="3200"
       id="use63"
       transform="translate(1244.4842,87.233937)"
       xlink:href="#g3622"
       inkscape:tiled-clone-of="#g3622"
       y="0"
       x="0" />
    <use
       height="800"
       width="3200"
       id="use69"
       transform="translate(1244.4842,612.3593)"
       xlink:href="#g3622"
       inkscape:tiled-clone-of="#g3622"
       y="0"
       x="0" />
    <use
       height="800"
       width="3200"
       id="use71"
       transform="translate(1422.2677,-2.8999999e-6)"
       xlink:href="#g3622"
       inkscape:tiled-clone-of="#g3622"
       y="0"
       x="0" />
    <use
       height="800"
       width="3200"
       id="use79"
       transform="translate(1600.0512,87.233937)"
       xlink:href="#g3622"
       inkscape:tiled-clone-of="#g3622"
       y="0"
       x="0" />
    <use
       height="800"
       width="3200"
       id="use85"
       transform="translate(1600.0512,612.3593)"
       xlink:href="#g3622"
       inkscape:tiled-clone-of="#g3622"
       y="0"
       x="0" />
    <use
       height="800"
       width="3200"
       id="use87"
       transform="translate(1777.8346,-2.8999999e-6)"
       xlink:href="#g3622"
       inkscape:tiled-clone-of="#g3622"
       y="0"
       x="0" />
    <use
       height="800"
       width="3200"
       id="use89"
       transform="translate(1777.8346,175.04179)"
       xlink:href="#g3622"
       inkscape:tiled-clone-of="#g3622"
       y="0"
       x="0" />
    <use
       height="800"
       width="3200"
       id="use93"
       transform="translate(1777.8346,525.12536)"
       xlink:href="#g3622"
       inkscape:tiled-clone-of="#g3622"
       y="0"
       x="0" />
    <use
       height="800"
       width="3200"
       id="use95"
       transform="translate(1955.618,87.233937)"
       xlink:href="#g3622"
       inkscape:tiled-clone-of="#g3622"
       y="0"
       x="0" />
    <use
       height="800"
       width="3200"
       id="use97"
       transform="translate(1955.618,262.27573)"
       xlink:href="#g3622"
       inkscape:tiled-clone-of="#g3622"
       y="0"
       x="0" />
    <use
       height="800"
       width="3200"
       id="use99"
       transform="translate(1955.618,437.31751)"
       xlink:href="#g3622"
       inkscape:tiled-clone-of="#g3622"
       y="0"
       x="0" />
    <use
       height="800"
       width="3200"
       id="use101"
       transform="translate(1955.618,612.3593)"
       xlink:href="#g3622"
       inkscape:tiled-clone-of="#g3622"
       y="0"
       x="0" />
    <use
       height="800"
       width="3200"
       id="use103"
       transform="translate(2133.4016,-2.8999999e-6)"
       xlink:href="#g3622"
       inkscape:tiled-clone-of="#g3622"
       y="0"
       x="0" />
    <use
       height="800"
       width="3200"
       id="use105"
       transform="translate(2133.4016,175.04179)"
       xlink:href="#g3622"
       inkscape:tiled-clone-of="#g3622"
       y="0"
       x="0" />
    <use
       height="800"
       width="3200"
       id="use107"
       transform="translate(2133.4016,350.08357)"
       xlink:href="#g3622"
       inkscape:tiled-clone-of="#g3622"
       y="0"
       x="0" />
    <use
       height="800"
       width="3200"
       id="use109"
       transform="translate(2133.4016,525.12536)"
       xlink:href="#g3622"
       inkscape:tiled-clone-of="#g3622"
       y="0"
       x="0" />
    <use
       height="800"
       width="3200"
       id="use111"
       transform="translate(2311.185,87.233937)"
       xlink:href="#g3622"
       inkscape:tiled-clone-of="#g3622"
       y="0"
       x="0" />
    <use
       height="800"
       width="3200"
       id="use113"
       transform="translate(2311.185,262.27573)"
       xlink:href="#g3622"
       inkscape:tiled-clone-of="#g3622"
       y="0"
       x="0" />
    <use
       height="800"
       width="3200"
       id="use115"
       transform="translate(2311.185,437.31751)"
       xlink:href="#g3622"
       inkscape:tiled-clone-of="#g3622"
       y="0"
       x="0" />
    <use
       height="800"
       width="3200"
       id="use117"
       transform="translate(2311.185,612.3593)"
       xlink:href="#g3622"
       inkscape:tiled-clone-of="#g3622"
       y="0"
       x="0" />
    <use
       height="800"
       width="3200"
       id="use119"
       transform="translate(2488.9684,-2.8999999e-6)"
       xlink:href="#g3622"
       inkscape:tiled-clone-of="#g3622"
       y="0"
       x="0" />
    <use
       height="800"
       width="3200"
       id="use121"
       transform="translate(2488.9684,175.04179)"
       xlink:href="#g3622"
       inkscape:tiled-clone-of="#g3622"
       y="0"
       x="0" />
    <use
       height="800"
       width="3200"
       id="use123"
       transform="translate(2488.9684,350.08357)"
       xlink:href="#g3622"
       inkscape:tiled-clone-of="#g3622"
       y="0"
       x="0" />
    <use
       height="800"
       width="3200"
       id="use125"
       transform="translate(2488.9684,525.12536)"
       xlink:href="#g3622"
       inkscape:tiled-clone-of="#g3622"
       y="0"
       x="0" />
    <use
       height="800"
       width="3200"
       id="use127"
       transform="translate(2666.7519,87.233937)"
       xlink:href="#g3622"
       inkscape:tiled-clone-of="#g3622"
       y="0"
       x="0" />
    <use
       height="800"
       width="3200"
       id="use129"
       transform="translate(2666.7519,262.27573)"
       xlink:href="#g3622"
       inkscape:tiled-clone-of="#g3622"
       y="0"
       x="0" />
    <use
       height="800"
       width="3200"
       id="use131"
       transform="translate(2666.7519,437.31751)"
       xlink:href="#g3622"
       inkscape:tiled-clone-of="#g3622"
       y="0"
       x="0" />
    <use
       height="800"
       width="3200"
       id="use133"
       transform="translate(2666.7519,612.3593)"
       xlink:href="#g3622"
       inkscape:tiled-clone-of="#g3622"
       y="0"
       x="0" />
    <use
       height="800"
       width="3200"
       id="use135"
       transform="translate(2844.5353,-2.8999999e-6)"
       xlink:href="#g3622"
       inkscape:tiled-clone-of="#g3622"
       y="0"
       x="0" />
    <use
       height="800"
       width="3200"
       id="use137"
       transform="translate(2844.5353,175.04179)"
       xlink:href="#g3622"
       inkscape:tiled-clone-of="#g3622"
       y="0"
       x="0" />
    <use
       height="800"
       width="3200"
       id="use139"
       transform="translate(2844.5353,350.08357)"
       xlink:href="#g3622"
       inkscape:tiled-clone-of="#g3622"
       y="0"
       x="0" />
    <use
       height="800"
       width="3200"
       id="use141"
       transform="translate(2844.5353,525.12536)"
       xlink:href="#g3622"
       inkscape:tiled-clone-of="#g3622"
       y="0"
       x="0" />
    <use
       height="800"
       width="3200"
       id="use143"
       transform="translate(3022.3188,87.233937)"
       xlink:href="#g3622"
       inkscape:tiled-clone-of="#g3622"
       y="0"
       x="0" />
    <use
       height="800"
       width="3200"
       id="use145"
       transform="translate(3022.3188,262.27573)"
       xlink:href="#g3622"
       inkscape:tiled-clone-of="#g3622"
       y="0"
       x="0" />
    <use
       height="800"
       width="3200"
       id="use147"
       transform="translate(3022.3188,437.31751)"
       xlink:href="#g3622"
       inkscape:tiled-clone-of="#g3622"
       y="0"
       x="0" />
    <use
       height="800"
       width="3200"
       id="use149"
       transform="translate(3022.3188,612.3593)"
       xlink:href="#g3622"
       inkscape:tiled-clone-of="#g3622"
       y="0"
       x="0" />
  </g>
  <g
     inkscape:groupmode="layer"
     id="layer6"
     inkscape:label="3 - text">
    <g
       id="g3830"
       transform="translate(161.62436,599.61081)">
      <g
         inkscape:label="Hershey Text"
         transform="matrix(2.25,0,0,1.5,1151.2774,-226.53843)"
         id="g3214">
        <path
           inkscape:connector-curvature="0"
           style="fill:none;stroke:#000000"
           d="M -3,-12 -9,9 m 7,-21 -6,21 m 2,-21 9,0 3,1 1,1 1,3 0,4 L 7,1 5,5 3,7 1,8 -3,9 -12,9 m 15,-21 2,1 1,1 1,3 0,4 L 6,1 4,5 2,7 0,8 -3,9"
           transform="translate(12,0)"
           id="path3216" />
        <path
           inkscape:connector-curvature="0"
           style="fill:none;stroke:#000000"
           d="m 0,-5 -3,1 -2,3 -1,3 0,3 1,2 1,1 2,1 L 0,9 3,8 5,5 6,2 6,-1 5,-3 4,-4 2,-5 0,-5 m 0,0 -2,1 -2,3 -1,3 0,4 1,2 M 0,9 2,8 4,5 5,2 5,-2 4,-4"
           transform="translate(32,0)"
           id="path3218" />
        <path
           inkscape:connector-curvature="0"
           style="fill:none;stroke:#000000"
           d=""
           transform="translate(49,0)"
           id="path3220" />
        <path
           inkscape:connector-curvature="0"
           style="fill:none;stroke:#000000"
           d="M -3,-12 -9,9 M -3,-12 4,6 M -3,-9 4,9 M 10,-12 4,9 m -10,-21 3,0 m 10,0 6,0 m -25,21 6,0"
           transform="translate(69,0)"
           id="path3222" />
        <path
           inkscape:connector-curvature="0"
           style="fill:none;stroke:#000000"
           d="m 0,-5 -3,1 -2,3 -1,3 0,3 1,2 1,1 2,1 L 0,9 3,8 5,5 6,2 6,-1 5,-3 4,-4 2,-5 0,-5 m 0,0 -2,1 -2,3 -1,3 0,4 1,2 M 0,9 2,8 4,5 5,2 5,-2 4,-4"
           transform="translate(91,0)"
           id="path3224" />
        <path
           inkscape:connector-curvature="0"
           style="fill:none;stroke:#000000"
           d="M 2,-12 -2,2 -3,6 -3,8 -2,9 1,9 3,7 4,5 m -1,-17 -4,14 -1,4 0,2 1,1 m -3,-14 9,0"
           transform="translate(107,0)"
           id="path3226" />
        <path
           inkscape:connector-curvature="0"
           style="fill:none;stroke:#000000"
           d=""
           transform="translate(122,0)"
           id="path3228" />
        <path
           inkscape:connector-curvature="0"
           style="fill:none;stroke:#000000"
           d="M -3,-12 -9,9 M -2,-12 -8,9 M 2,-6 0,2 m -6,-14 15,0 -1,6 0,-6 M -5,-2 1,-2 M -12,9 3,9 5,4 2,9"
           transform="translate(142,0)"
           id="path3230" />
        <path
           inkscape:connector-curvature="0"
           style="fill:none;stroke:#000000"
           d="M 6,-5 4,2 3,6 3,8 4,9 7,9 9,7 10,5 M 7,-5 5,2 4,6 4,8 5,9 M 4,2 4,-1 3,-4 1,-5 l -2,0 -3,1 -2,3 -1,3 0,3 1,2 1,1 2,1 2,0 L 1,8 3,5 4,2 m -5,-7 -2,1 -2,3 -1,3 0,4 1,2"
           transform="translate(163,0)"
           id="path3232" />
        <path
           inkscape:connector-curvature="0"
           style="fill:none;stroke:#000000"
           d="M 2,-12 -2,2 -3,6 -3,8 -2,9 1,9 3,7 4,5 m -1,-17 -4,14 -1,4 0,2 1,1 m -3,-14 9,0"
           transform="translate(181,0)"
           id="path3234" />
        <path
           inkscape:connector-curvature="0"
           style="fill:none;stroke:#000000"
           d="M 3,-12 2,-11 0,1 M 3,-11 0,1 m 3,-13 1,1 -4,12 m -2,6 -1,1 1,1 1,-1 -1,-1"
           transform="translate(193,0)"
           id="path3236" />
      </g>
      <g
         id="g3420"
         transform="matrix(2.25,0,0,1.5,1003.0006,-161.02073)"
         inkscape:label="Hershey Text">
        <path
           id="path3422"
           transform="translate(12,0)"
           d="M -3,-12 -9,9 M -3,-12 4,6 M -3,-9 4,9 M 10,-12 4,9 m -10,-21 3,0 m 10,0 6,0 m -25,21 6,0"
           style="fill:none;stroke:#000000"
           inkscape:connector-curvature="0" />
        <path
           id="path3424"
           transform="translate(34,0)"
           d="m 0,-5 -3,1 -2,3 -1,3 0,3 1,2 1,1 2,1 L 0,9 3,8 5,5 6,2 6,-1 5,-3 4,-4 2,-5 0,-5 m 0,0 -2,1 -2,3 -1,3 0,4 1,2 M 0,9 2,8 4,5 5,2 5,-2 4,-4"
           style="fill:none;stroke:#000000"
           inkscape:connector-curvature="0" />
        <path
           id="path3426"
           transform="translate(55,0)"
           d="m -11,-1 1,-2 2,-2 3,0 1,1 0,2 -1,4 -2,7 m 1,-14 1,1 0,2 -1,4 -2,7 m 3,-7 2,-4 2,-2 2,-1 2,0 2,1 1,1 0,2 -2,6 0,3 1,1 M 3,-5 5,-3 5,-1 3,5 3,8 4,9 7,9 9,7 10,5"
           style="fill:none;stroke:#000000"
           inkscape:connector-curvature="0" />
        <path
           id="path3428"
           transform="translate(74,0)"
           d=""
           style="fill:none;stroke:#000000"
           inkscape:connector-curvature="0" />
        <path
           id="path3430"
           transform="translate(94,0)"
           d="M -3,-12 -9,9 M -2,-12 -8,9 M 2,-6 0,2 m -6,-14 15,0 -1,6 0,-6 m -13,10 6,0 m -13,11 7,0"
           style="fill:none;stroke:#000000"
           inkscape:connector-curvature="0" />
        <path
           id="path3432"
           transform="translate(113,0)"
           d="m 0,-5 -3,1 -2,3 -1,3 0,3 1,2 1,1 2,1 L 0,9 3,8 5,5 6,2 6,-1 5,-3 4,-4 2,-5 0,-5 m 0,0 -2,1 -2,3 -1,3 0,4 1,2 M 0,9 2,8 4,5 5,2 5,-2 4,-4"
           style="fill:none;stroke:#000000"
           inkscape:connector-curvature="0" />
        <path
           id="path3434"
           transform="translate(131,0)"
           d="m 0,-5 -3,1 -2,3 -1,3 0,3 1,2 1,1 2,1 L 0,9 3,8 5,5 6,2 6,-1 5,-3 4,-4 2,-5 0,-5 m 0,0 -2,1 -2,3 -1,3 0,4 1,2 M 0,9 2,8 4,5 5,2 5,-2 4,-4"
           style="fill:none;stroke:#000000"
           inkscape:connector-curvature="0" />
        <path
           id="path3436"
           transform="translate(150,0)"
           d="M 8,-12 4,2 3,6 3,8 4,9 7,9 9,7 10,5 M 9,-12 5,2 4,6 4,8 5,9 M 4,2 4,-1 3,-4 1,-5 l -2,0 -3,1 -2,3 -1,3 0,3 1,2 1,1 2,1 2,0 L 1,8 3,5 4,2 m -5,-7 -2,1 -2,3 -1,3 0,4 1,2 m 10,-20 4,0"
           style="fill:none;stroke:#000000"
           inkscape:connector-curvature="0" />
        <path
           id="path3438"
           transform="translate(169,0)"
           d=""
           style="fill:none;stroke:#000000"
           inkscape:connector-curvature="0" />
        <path
           id="path3440"
           transform="translate(188,0)"
           d="m 8,-10 1,0 1,-2 -1,6 0,-2 -1,-2 -1,-1 -3,-1 -4,0 -3,1 -2,2 0,2 1,2 1,1 7,4 2,2 M -5,-7 -3,-5 4,-1 5,0 6,2 6,5 5,7 4,8 1,9 -3,9 -6,8 -7,7 -8,5 -8,3 -9,9 -8,7 -7,7"
           style="fill:none;stroke:#000000"
           inkscape:connector-curvature="0" />
        <path
           id="path3442"
           transform="translate(210,0)"
           d="M 6,-5 4,2 3,6 3,8 4,9 7,9 9,7 10,5 M 7,-5 5,2 4,6 4,8 5,9 M 4,2 4,-1 3,-4 1,-5 l -2,0 -3,1 -2,3 -1,3 0,3 1,2 1,1 2,1 2,0 L 1,8 3,5 4,2 m -5,-7 -2,1 -2,3 -1,3 0,4 1,2"
           style="fill:none;stroke:#000000"
           inkscape:connector-curvature="0" />
        <path
           id="path3444"
           transform="translate(228,0)"
           d="m 8,-11 -1,1 1,1 1,-1 0,-1 -1,-1 -2,0 -2,1 -1,1 -1,2 -1,3 -3,14 -1,4 -1,2 m 10,-27 -2,2 -1,2 -1,4 -2,9 -1,4 -1,3 -1,2 -1,1 -2,1 -2,0 -1,-1 0,-1 1,-1 1,1 -1,1 m 5,-20 10,0"
           style="fill:none;stroke:#000000"
           inkscape:connector-curvature="0" />
        <path
           id="path3446"
           transform="translate(245,0)"
           d="M -5,4 -1,3 2,2 5,0 6,-2 5,-4 3,-5 l -3,0 -3,1 -2,3 -1,3 0,3 1,2 1,1 2,1 2,0 3,-1 2,-2 m -5,-11 -2,1 -2,3 -1,3 0,4 1,2"
           style="fill:none;stroke:#000000"
           inkscape:connector-curvature="0" />
        <path
           id="path3448"
           transform="translate(262,0)"
           d=""
           style="fill:none;stroke:#000000"
           inkscape:connector-curvature="0" />
        <path
           id="path3450"
           transform="translate(276,0)"
           d="M 3,-12 -3,9 M 4,-12 -2,9 m 2,-21 7,0 M -6,9 1,9"
           style="fill:none;stroke:#000000"
           inkscape:connector-curvature="0" />
        <path
           id="path3452"
           transform="translate(295,0)"
           d="m -11,-1 1,-2 2,-2 3,0 1,1 0,2 -1,4 -2,7 m 1,-14 1,1 0,2 -1,4 -2,7 m 3,-7 2,-4 2,-2 2,-1 2,0 2,1 1,1 0,2 -2,6 0,3 1,1 M 3,-5 5,-3 5,-1 3,5 3,8 4,9 7,9 9,7 10,5"
           style="fill:none;stroke:#000000"
           inkscape:connector-curvature="0" />
        <path
           id="path3454"
           transform="translate(316,0)"
           d="M -2,-12 -8,9 M -1,-12 -7,9 M 6,-4 5,-3 6,-2 7,-3 7,-4 6,-5 5,-5 3,-4 -1,0 -3,1 -5,1 m 2,0 2,1 2,6 1,1 M -3,1 -2,2 0,8 1,9 3,9 5,8 7,5 m -12,-17 4,0"
           style="fill:none;stroke:#000000"
           inkscape:connector-curvature="0" />
      </g>
      <g
         inkscape:label="Hershey Text"
         transform="matrix(1.8,0,0,1.2,1104.4221,-97.69948)"
         id="g3674">
        <path
           inkscape:connector-curvature="0"
           style="fill:none;stroke:#000000"
           d="m 8,-16 -4,3 -3,3 -2,3 -2,4 -1,5 0,4 1,5 1,3 1,2 m 5,-29 -3,4 -2,4 -1,3 -1,5 0,5 1,5 1,3"
           transform="translate(7,0)"
           id="path3676" />
        <path
           inkscape:connector-curvature="0"
           style="fill:none;stroke:#000000"
           d="m 1,-12 -3,1 -2,2 -2,3 -1,3 -1,4 0,3 1,3 1,1 2,1 3,0 L 2,8 4,6 6,3 7,0 8,-4 8,-7 7,-10 6,-11 4,-12 1,-12 m 0,0 -2,1 -2,2 -2,3 -1,3 -1,4 0,3 1,3 2,2 M -1,9 1,8 3,6 5,3 6,0 7,-4 7,-7 6,-10 4,-12"
           transform="translate(26,0)"
           id="path3678" />
        <path
           inkscape:connector-curvature="0"
           style="fill:none;stroke:#000000"
           d="M -2,-12 -8,9 M -1,-12 -7,9 M 6,-4 5,-3 6,-2 7,-3 7,-4 6,-5 5,-5 3,-4 -1,0 -3,1 -5,1 m 2,0 2,1 2,6 1,1 M -3,1 -2,2 0,8 1,9 3,9 5,8 7,5 m -12,-17 4,0"
           transform="translate(47,0)"
           id="path3680" />
        <path
           inkscape:connector-curvature="0"
           style="fill:none;stroke:#000000"
           d="M 6,-5 4,2 3,6 3,8 4,9 7,9 9,7 10,5 M 7,-5 5,2 4,6 4,8 5,9 M 4,2 4,-1 3,-4 1,-5 l -2,0 -3,1 -2,3 -1,3 0,3 1,2 1,1 2,1 2,0 L 1,8 3,5 4,2 m -5,-7 -2,1 -2,3 -1,3 0,4 1,2"
           transform="translate(67,0)"
           id="path3682" />
        <path
           inkscape:connector-curvature="0"
           style="fill:none;stroke:#000000"
           d="m -10,-1 1,-2 2,-2 3,0 1,1 0,3 -2,6 0,2 2,2 m -2,-14 1,1 0,3 -2,6 0,2 1,1 2,1 2,0 L 1,8 3,6 5,2 m 3,-7 -4,14 -1,3 -2,3 -3,1 -3,0 -2,-1 -1,-1 0,-1 1,-1 1,1 -1,1 M 7,-5 3,9 2,12 0,15 -2,16"
           transform="translate(89,0)"
           id="path3684" />
        <path
           inkscape:connector-curvature="0"
           style="fill:none;stroke:#000000"
           d=""
           transform="translate(107,0)"
           id="path3686" />
        <path
           inkscape:connector-curvature="0"
           style="fill:none;stroke:#000000"
           d="m 8,-11 -1,1 1,1 1,-1 0,-1 -1,-1 -2,0 -2,1 -1,1 -1,2 -1,3 -3,14 -1,4 -1,2 m 10,-27 -2,2 -1,2 -1,4 -2,9 -1,4 -1,3 -1,2 -1,1 -2,1 -2,0 -1,-1 0,-1 1,-1 1,1 -1,1 m 5,-20 10,0"
           transform="translate(122,0)"
           id="path3688" />
        <path
           inkscape:connector-curvature="0"
           style="fill:none;stroke:#000000"
           d="m 0,-5 -3,1 -2,3 -1,3 0,3 1,2 1,1 2,1 L 0,9 3,8 5,5 6,2 6,-1 5,-3 4,-4 2,-5 0,-5 m 0,0 -2,1 -2,3 -1,3 0,4 1,2 M 0,9 2,8 4,5 5,2 5,-2 4,-4"
           transform="translate(139,0)"
           id="path3690" />
        <path
           inkscape:connector-curvature="0"
           style="fill:none;stroke:#000000"
           d="m -8,-1 1,-2 2,-2 3,0 1,1 0,2 -1,4 -2,7 m 1,-14 1,1 0,2 -1,4 -2,7 m 3,-7 2,-4 2,-2 2,-1 2,0 1,1 0,1 -1,1 -1,-1 1,-1"
           transform="translate(157,0)"
           id="path3692" />
        <path
           inkscape:connector-curvature="0"
           style="fill:none;stroke:#000000"
           d=""
           transform="translate(173,0)"
           id="path3694" />
        <path
           inkscape:connector-curvature="0"
           style="fill:none;stroke:#000000"
           d="M -1,-12 -7,9 M 0,-12 -6,9 m 2,-21 7,0 M -10,9 5,9 7,3 4,9"
           transform="translate(191,0)"
           id="path3696" />
        <path
           inkscape:connector-curvature="0"
           style="fill:none;stroke:#000000"
           d="M -3,-12 -9,9 m 7,-21 -6,21 m 2,-21 9,0 3,1 1,1 1,3 0,4 L 7,1 5,5 3,7 1,8 -3,9 -12,9 m 15,-21 2,1 1,1 1,3 0,4 L 6,1 4,5 2,7 0,8 -3,9"
           transform="translate(213,0)"
           id="path3698" />
        <path
           inkscape:connector-curvature="0"
           style="fill:none;stroke:#000000"
           d="m -1,-12 -5,10 m 5,-10 10,0 m -10,1 5,0 5,-1 m -15,10 1,-1 3,-1 3,0 3,1 1,1 L 6,0 6,3 5,6 3,8 0,9 -3,9 -6,8 -7,7 -8,5 -8,4 -7,3 -6,4 -7,5 M 1,-4 3,-3 4,-2 5,0 5,3 4,6 2,8 0,9"
           transform="translate(234,0)"
           id="path3700" />
        <path
           inkscape:connector-curvature="0"
           style="fill:none;stroke:#000000"
           d="m 2,-12 -3,1 -2,2 -2,3 -1,3 -1,4 0,3 1,3 1,1 2,1 2,0 L 2,8 4,6 6,3 7,0 8,-4 8,-7 7,-10 6,-11 4,-12 2,-12 m 0,0 -2,1 -2,2 -2,3 -1,3 -1,4 0,3 1,3 2,2 M -1,9 1,8 3,6 5,3 6,0 7,-4 7,-7 6,-10 4,-12"
           transform="translate(255,0)"
           id="path3702" />
        <path
           inkscape:connector-curvature="0"
           style="fill:none;stroke:#000000"
           d="m 1,-16 1,2 1,3 1,5 0,4 -1,5 -2,4 -2,3 -3,3 -4,3 m 9,-32 1,3 1,5 0,5 -1,5 -1,3 -2,4 -3,4"
           transform="translate(274,0)"
           id="path3704" />
      </g>
    </g>
  </g>
</svg>
