<?xml version="1.0" encoding="UTF-8" standalone="no"?>
<svg
   xmlns:dc="http://purl.org/dc/elements/1.1/"
   xmlns:cc="http://creativecommons.org/ns#"
   xmlns:rdf="http://www.w3.org/1999/02/22-rdf-syntax-ns#"
   xmlns:svg="http://www.w3.org/2000/svg"
   xmlns="http://www.w3.org/2000/svg"
   xmlns:xlink="http://www.w3.org/1999/xlink"
   xmlns:sodipodi="http://sodipodi.sourceforge.net/DTD/sodipodi-0.dtd"
   xmlns:inkscape="http://www.inkscape.org/namespaces/inkscape"
   height="800"
   width="3200"
   id="svg3491"
   version="1.1"
   inkscape:version="0.48.5 r10040"
   sodipodi:docname="warning.svg">
  <title
     id="title16776">Egg warning label</title>
  <sodipodi:namedview
     pagecolor="#ffffff"
     bordercolor="#666666"
     borderopacity="1"
     objecttolerance="10"
     gridtolerance="10"
     guidetolerance="10"
     inkscape:pageopacity="0"
     inkscape:pageshadow="2"
     inkscape:window-width="1610"
     inkscape:window-height="894"
     id="namedview3495"
     showgrid="false"
     inkscape:zoom="0.361875"
     inkscape:cx="1597.2366"
     inkscape:cy="400"
     inkscape:window-x="1519"
     inkscape:window-y="216"
     inkscape:window-maximized="0"
     inkscape:current-layer="layer6"
     inkscape:showpageshadow="false" />
  <metadata
     id="metadata3499">
    <rdf:RDF>
      <cc:Work
         rdf:about="">
        <dc:format>image/svg+xml</dc:format>
        <dc:type
           rdf:resource="http://purl.org/dc/dcmitype/StillImage" />
        <dc:title>Egg warning label</dc:title>
        <cc:license
           rdf:resource="http://creativecommons.org/licenses/publicdomain/" />
        <dc:creator>
          <cc:Agent>
            <dc:title>Dan Newman</dc:title>
          </cc:Agent>
        </dc:creator>
        <dc:description>This drawing is intended for drawing on an egg with an Eggbot.  See http://www.egg-bot.com/ for information.</dc:description>
      </cc:Work>
      <cc:License
         rdf:about="http://creativecommons.org/licenses/publicdomain/">
        <cc:permits
           rdf:resource="http://creativecommons.org/ns#Reproduction" />
        <cc:permits
           rdf:resource="http://creativecommons.org/ns#Distribution" />
        <cc:permits
           rdf:resource="http://creativecommons.org/ns#DerivativeWorks" />
      </cc:License>
    </rdf:RDF>
  </metadata>
  <defs
     id="defs3497" />
  <g
     inkscape:groupmode="layer"
     id="layer5"
     inkscape:label="3"
     style="display:inline">
    <g
       transform="matrix(0.71113384,0,0,0.5739075,106.94752,101.62422)"
       inkscape:tile-y0="-176.94119"
       inkscape:tile-x0="-150"
       inkscape:tile-h="326.16995"
       inkscape:tile-w="300"
       inkscape:tile-cy="-13.856214"
       inkscape:tile-cx="0"
       id="g3622">
      <path
         style="fill:none;stroke:#000000;stroke-width:0.89442718"
         d="m -150,-2.7712434 0,-119.9999966 a 200,160 0 0 1 300,0 l 0,119.9999966 A 200,160 0 0 0 100,29.228757 l 0,120.000003 a 200,160 0 0 0 -34,-12.8 l 0,-40.000003 0,40.000003 a 200,160 0 0 0 -33,-6.4 l 0,-40.000003 0,40.000003 a 200,160 0 0 0 -33,-2.4 L 0,87.628757 0,127.62876 a 200,160 0 0 0 -33,2.4 l 0,-40.000003 0,40.000003 a 200,160 0 0 0 -33,6.4 l 0,-40.000003 0,40.000003 a 200,160 0 0 0 -34,12.8 l 0,-120.000003 a 200,160 0 0 0 -50,-32.0000004"
         id="path3493"
         inkscape:connector-curvature="0" />
      <path
         style="fill:#000000;stroke:#000000;stroke-width:0.89442718"
         d="m -100,-70.771243 a 35,28 0 1 1 70,0 35,28 0 0 1 -70,0"
         id="path3616"
         inkscape:connector-curvature="0" />
      <path
         style="fill:#000000;stroke:#000000;stroke-width:0.89442718"
         d="m 100,-70.771243 a 35,28 0 0 1 -70,0 35,28 0 1 1 70,0"
         id="path3618"
         inkscape:connector-curvature="0" />
      <path
         style="fill:#000000;stroke:#000000;stroke-width:0.89442718"
         d="m -30,21.228757 30,-72 30,72 z"
         id="path3620"
         inkscape:connector-curvature="0" />
    </g>
    <use
       height="800"
       width="3200"
       id="use3698"
       transform="translate(-3.6459446e-6,175.04179)"
       xlink:href="#g3622"
       inkscape:tiled-clone-of="#g3622"
       y="0"
       x="0" />
    <use
       height="800"
       width="3200"
       id="use12"
       transform="translate(-3.6459446e-6,350.08357)"
       xlink:href="#g3622"
       inkscape:tiled-clone-of="#g3622"
       y="0"
       x="0" />
    <use
       height="800"
       width="3200"
       id="use14"
       transform="translate(-3.6459446e-6,525.12536)"
       xlink:href="#g3622"
       inkscape:tiled-clone-of="#g3622"
       y="0"
       x="0" />
    <use
       height="800"
       width="3200"
       id="use17"
       transform="translate(177.7834,262.27573)"
       xlink:href="#g3622"
       inkscape:tiled-clone-of="#g3622"
       y="0"
       x="0" />
    <use
       height="800"
       width="3200"
       id="use21"
       transform="translate(177.7834,612.3593)"
       xlink:href="#g3622"
       inkscape:tiled-clone-of="#g3622"
       y="0"
       x="0" />
    <use
       height="800"
       width="3200"
       id="use23"
       transform="translate(355.5669,-2.8999999e-6)"
       xlink:href="#g3622"
       inkscape:tiled-clone-of="#g3622"
       y="0"
       x="0" />
    <use
       height="800"
       width="3200"
       id="use25"
       transform="translate(355.5669,175.04179)"
       xlink:href="#g3622"
       inkscape:tiled-clone-of="#g3622"
       y="0"
       x="0" />
    <use
       height="800"
       width="3200"
       id="use27"
       transform="translate(355.5669,350.08357)"
       xlink:href="#g3622"
       inkscape:tiled-clone-of="#g3622"
       y="0"
       x="0" />
    <use
       height="800"
       width="3200"
       id="use29"
       transform="translate(355.5669,525.12536)"
       xlink:href="#g3622"
       inkscape:tiled-clone-of="#g3622"
       y="0"
       x="0" />
    <use
       height="800"
       width="3200"
       id="use33"
       transform="translate(533.35039,262.27573)"
       xlink:href="#g3622"
       inkscape:tiled-clone-of="#g3622"
       y="0"
       x="0" />
    <use
       height="800"
       width="3200"
       id="use37"
       transform="translate(533.35039,612.3593)"
       xlink:href="#g3622"
       inkscape:tiled-clone-of="#g3622"
       y="0"
       x="0" />
    <use
       height="800"
       width="3200"
       id="use39"
       transform="translate(711.13387,-2.8999999e-6)"
       xlink:href="#g3622"
       inkscape:tiled-clone-of="#g3622"
       y="0"
       x="0" />
    <use
       height="800"
       width="3200"
       id="use41"
       transform="translate(711.13387,175.04179)"
       xlink:href="#g3622"
       inkscape:tiled-clone-of="#g3622"
       y="0"
       x="0" />
    <use
       height="800"
       width="3200"
       id="use43"
       transform="translate(711.13387,350.08357)"
       xlink:href="#g3622"
       inkscape:tiled-clone-of="#g3622"
       y="0"
       x="0" />
    <use
       height="800"
       width="3200"
       id="use45"
       transform="translate(711.13387,525.12536)"
       xlink:href="#g3622"
       inkscape:tiled-clone-of="#g3622"
       y="0"
       x="0" />
    <use
       height="800"
       width="3200"
       id="use49"
       transform="translate(888.91725,262.27573)"
       xlink:href="#g3622"
       inkscape:tiled-clone-of="#g3622"
       y="0"
       x="0" />
    <use
       height="800"
       width="3200"
       id="use53"
       transform="translate(888.91725,612.3593)"
       xlink:href="#g3622"
       inkscape:tiled-clone-of="#g3622"
       y="0"
       x="0" />
    <use
       height="800"
       width="3200"
       id="use55"
       transform="translate(1066.7007,-2.8999999e-6)"
       xlink:href="#g3622"
       inkscape:tiled-clone-of="#g3622"
       y="0"
       x="0" />
    <use
       height="800"
       width="3200"
       id="use57"
       transform="translate(1066.7007,175.04179)"
       xlink:href="#g3622"
       inkscape:tiled-clone-of="#g3622"
       y="0"
       x="0" />
    <use
       height="800"
       width="3200"
       id="use61"
       transform="translate(1066.7007,525.12536)"
       xlink:href="#g3622"
       inkscape:tiled-clone-of="#g3622"
       y="0"
       x="0" />
    <use
       height="800"
       width="3200"
       id="use69"
       transform="translate(1244.4842,612.3593)"
       xlink:href="#g3622"
       inkscape:tiled-clone-of="#g3622"
       y="0"
       x="0" />
    <use
       height="800"
       width="3200"
       id="use71"
       transform="translate(1422.2677,-2.8999999e-6)"
       xlink:href="#g3622"
       inkscape:tiled-clone-of="#g3622"
       y="0"
       x="0" />
    <use
       height="800"
       width="3200"
       id="use85"
       transform="translate(1600.0512,612.3593)"
       xlink:href="#g3622"
       inkscape:tiled-clone-of="#g3622"
       y="0"
       x="0" />
    <use
       height="800"
       width="3200"
       id="use87"
       transform="translate(1777.8346,-2.8999999e-6)"
       xlink:href="#g3622"
       inkscape:tiled-clone-of="#g3622"
       y="0"
       x="0" />
    <use
       height="800"
       width="3200"
       id="use89"
       transform="translate(1777.8346,175.04179)"
       xlink:href="#g3622"
       inkscape:tiled-clone-of="#g3622"
       y="0"
       x="0" />
    <use
       height="800"
       width="3200"
       id="use93"
       transform="translate(1777.8346,525.12536)"
       xlink:href="#g3622"
       inkscape:tiled-clone-of="#g3622"
       y="0"
       x="0" />
    <use
       height="800"
       width="3200"
       id="use97"
       transform="translate(1955.618,262.27573)"
       xlink:href="#g3622"
       inkscape:tiled-clone-of="#g3622"
       y="0"
       x="0" />
    <use
       height="800"
       width="3200"
       id="use101"
       transform="translate(1955.618,612.3593)"
       xlink:href="#g3622"
       inkscape:tiled-clone-of="#g3622"
       y="0"
       x="0" />
    <use
       height="800"
       width="3200"
       id="use103"
       transform="translate(2133.4016,-2.8999999e-6)"
       xlink:href="#g3622"
       inkscape:tiled-clone-of="#g3622"
       y="0"
       x="0" />
    <use
       height="800"
       width="3200"
       id="use105"
       transform="translate(2133.4016,175.04179)"
       xlink:href="#g3622"
       inkscape:tiled-clone-of="#g3622"
       y="0"
       x="0" />
    <use
       height="800"
       width="3200"
       id="use107"
       transform="translate(2133.4016,350.08357)"
       xlink:href="#g3622"
       inkscape:tiled-clone-of="#g3622"
       y="0"
       x="0" />
    <use
       height="800"
       width="3200"
       id="use109"
       transform="translate(2133.4016,525.12536)"
       xlink:href="#g3622"
       inkscape:tiled-clone-of="#g3622"
       y="0"
       x="0" />
    <use
       height="800"
       width="3200"
       id="use113"
       transform="translate(2311.185,262.27573)"
       xlink:href="#g3622"
       inkscape:tiled-clone-of="#g3622"
       y="0"
       x="0" />
    <use
       height="800"
       width="3200"
       id="use117"
       transform="translate(2311.185,612.3593)"
       xlink:href="#g3622"
       inkscape:tiled-clone-of="#g3622"
       y="0"
       x="0" />
    <use
       height="800"
       width="3200"
       id="use119"
       transform="translate(2488.9684,-2.8999999e-6)"
       xlink:href="#g3622"
       inkscape:tiled-clone-of="#g3622"
       y="0"
       x="0" />
    <use
       height="800"
       width="3200"
       id="use121"
       transform="translate(2488.9684,175.04179)"
       xlink:href="#g3622"
       inkscape:tiled-clone-of="#g3622"
       y="0"
       x="0" />
    <use
       height="800"
       width="3200"
       id="use123"
       transform="translate(2488.9684,350.08357)"
       xlink:href="#g3622"
       inkscape:tiled-clone-of="#g3622"
       y="0"
       x="0" />
    <use
       height="800"
       width="3200"
       id="use125"
       transform="translate(2488.9684,525.12536)"
       xlink:href="#g3622"
       inkscape:tiled-clone-of="#g3622"
       y="0"
       x="0" />
    <use
       height="800"
       width="3200"
       id="use129"
       transform="translate(2666.7519,262.27573)"
       xlink:href="#g3622"
       inkscape:tiled-clone-of="#g3622"
       y="0"
       x="0" />
    <use
       height="800"
       width="3200"
       id="use133"
       transform="translate(2666.7519,612.3593)"
       xlink:href="#g3622"
       inkscape:tiled-clone-of="#g3622"
       y="0"
       x="0" />
    <use
       height="800"
       width="3200"
       id="use135"
       transform="translate(2844.5353,-2.8999999e-6)"
       xlink:href="#g3622"
       inkscape:tiled-clone-of="#g3622"
       y="0"
       x="0" />
    <use
       height="800"
       width="3200"
       id="use137"
       transform="translate(2844.5353,175.04179)"
       xlink:href="#g3622"
       inkscape:tiled-clone-of="#g3622"
       y="0"
       x="0" />
    <use
       height="800"
       width="3200"
       id="use139"
       transform="translate(2844.5353,350.08357)"
       xlink:href="#g3622"
       inkscape:tiled-clone-of="#g3622"
       y="0"
       x="0" />
    <use
       height="800"
       width="3200"
       id="use141"
       transform="translate(2844.5353,525.12536)"
       xlink:href="#g3622"
       inkscape:tiled-clone-of="#g3622"
       y="0"
       x="0" />
    <use
       height="800"
       width="3200"
       id="use145"
       transform="translate(3022.3188,262.27573)"
       xlink:href="#g3622"
       inkscape:tiled-clone-of="#g3622"
       y="0"
       x="0" />
    <use
       height="800"
       width="3200"
       id="use149"
       transform="translate(3022.3188,612.3593)"
       xlink:href="#g3622"
       inkscape:tiled-clone-of="#g3622"
       y="0"
       x="0" />
  </g>
  <g
     inkscape:groupmode="layer"
     id="layer2"
     inkscape:label="2"
     style="display:inline">
    <use
       height="800"
       width="3200"
       id="use3696"
       transform="translate(177.7834,87.233936)"
       xlink:href="#g3622"
       inkscape:tiled-clone-of="#g3622"
       y="0"
       x="0" />
    <use
       height="800"
       width="3200"
       id="use19"
       transform="translate(177.7834,437.31751)"
       xlink:href="#g3622"
       inkscape:tiled-clone-of="#g3622"
       y="0"
       x="0" />
    <use
       height="800"
       width="3200"
       id="use31"
       transform="translate(533.35039,87.233936)"
       xlink:href="#g3622"
       inkscape:tiled-clone-of="#g3622"
       y="0"
       x="0" />
    <use
       height="800"
       width="3200"
       id="use35"
       transform="translate(533.35039,437.31751)"
       xlink:href="#g3622"
       inkscape:tiled-clone-of="#g3622"
       y="0"
       x="0" />
    <use
       height="800"
       width="3200"
       id="use47"
       transform="translate(888.91725,87.233936)"
       xlink:href="#g3622"
       inkscape:tiled-clone-of="#g3622"
       y="0"
       x="0" />
    <use
       height="800"
       width="3200"
       id="use51"
       transform="translate(888.91725,437.31751)"
       xlink:href="#g3622"
       inkscape:tiled-clone-of="#g3622"
       y="0"
       x="0" />
    <use
       height="800"
       width="3200"
       id="use63"
       transform="translate(1244.4842,87.233936)"
       xlink:href="#g3622"
       inkscape:tiled-clone-of="#g3622"
       y="0"
       x="0" />
    <use
       height="800"
       width="3200"
       id="use79"
       transform="translate(1600.0512,87.233936)"
       xlink:href="#g3622"
       inkscape:tiled-clone-of="#g3622"
       y="0"
       x="0" />
    <use
       height="800"
       width="3200"
       id="use95"
       transform="translate(1955.618,87.233936)"
       xlink:href="#g3622"
       inkscape:tiled-clone-of="#g3622"
       y="0"
       x="0" />
    <use
       height="800"
       width="3200"
       id="use99"
       transform="translate(1955.618,437.31751)"
       xlink:href="#g3622"
       inkscape:tiled-clone-of="#g3622"
       y="0"
       x="0" />
    <use
       height="800"
       width="3200"
       id="use111"
       transform="translate(2311.185,87.233936)"
       xlink:href="#g3622"
       inkscape:tiled-clone-of="#g3622"
       y="0"
       x="0" />
    <use
       height="800"
       width="3200"
       id="use115"
       transform="translate(2311.185,437.31751)"
       xlink:href="#g3622"
       inkscape:tiled-clone-of="#g3622"
       y="0"
       x="0" />
    <use
       height="800"
       width="3200"
       id="use127"
       transform="translate(2666.7519,87.233936)"
       xlink:href="#g3622"
       inkscape:tiled-clone-of="#g3622"
       y="0"
       x="0" />
    <use
       height="800"
       width="3200"
       id="use131"
       transform="translate(2666.7519,437.31751)"
       xlink:href="#g3622"
       inkscape:tiled-clone-of="#g3622"
       y="0"
       x="0" />
    <use
       height="800"
       width="3200"
       id="use143"
       transform="translate(3022.3188,87.233936)"
       xlink:href="#g3622"
       inkscape:tiled-clone-of="#g3622"
       y="0"
       x="0" />
    <use
       height="800"
       width="3200"
       id="use147"
       transform="translate(3022.3188,437.31751)"
       xlink:href="#g3622"
       inkscape:tiled-clone-of="#g3622"
       y="0"
       x="0" />
  </g>
  <g
     inkscape:groupmode="layer"
     id="layer6"
     inkscape:label="1"
     style="display:inline">
    <text
       xml:space="preserve"
       style="font-size:144px;font-style:italic;font-variant:normal;font-weight:normal;font-stretch:normal;text-align:start;line-height:125%;letter-spacing:0px;word-spacing:0px;writing-mode:lr-tb;text-anchor:start;fill:#000000;fill-opacity:1;stroke:none;font-family:Brush Script MT;-inkscape-font-specification:Brush Script MT Italic"
       x="1138.4213"
       y="483.59152"
       id="text7140"
       sodipodi:linespacing="125%"><tspan
         sodipodi:role="line"
         id="tspan7142"
         x="1138.4213"
         y="483.59152">Don't Eat Me !</tspan></text>
  </g>
</svg>
